<ttFont>
          <CharString index="0">
            -5 callsubr
            282 hlineto
            -101 callsubr
            430 -103 callsubr
            -430 -67 callsubr
            -40 callsubr
            372 -98 callsubr
            -27 callgsubr
            return
          </CharString>
          <CharString index="1">
            -26 callgsubr
            314 -71 callgsubr
            -314 vlineto
            95 -1 rmoveto
            -27 27 rlineto
            262 -64 callsubr
            -262 vlineto
            -27 -27 rlineto
            return
          </CharString>
          <CharString index="2">
            430 hmoveto
            -43 callsubr
            -267 -80 46 hlineto
            -101 callgsubr
            hlineto
            -102 575 -55 callgsubr
            return
          </CharString>
          <CharString index="3">
            92 vstem
            -107 callsubr
            return
          </CharString>
          <CharString index="4">
            -102 callgsubr
            -282 hlineto
            -104 -54 callgsubr
            return
          </CharString>
          <CharString index="5">
            -169 -490 rlineto
            -53 -66 callsubr
            -67 hlineto
            43 124 rlineto
            250 hlineto
            43 -124 rlineto
            -66 return
          </CharString>
          <CharString index="6">
            104 110 rlineto
            return
          </CharString>
          <CharString index="7">
            78 -32 rlineto
            132 hlineto
            13 38 -194 77 rlineto
            endchar
          </CharString>
          <CharString index="8">
            -267 -80 42 hlineto
            -102 callsubr
            return
          </CharString>
          <CharString index="9">
            -87 callsubr
            -5 callgsubr
            51 -53 rlineto
            return
          </CharString>
          <CharString index="10">
            13 -38 rlineto
            132 hlineto
            78 32 rlineto
            endchar
          </CharString>
          <CharString index="11">
            hlineto
            -90 callsubr
            272 hlineto
            -101 callsubr
            return
          </CharString>
          <CharString index="12">
            440 hmoveto
            80 -90 126 vlineto
            173 364 rlineto
            64 -77 callgsubr
            60 hlineto
            -132 -277 -131 277 rlineto
            60 -77 callgsubr
            64 hlineto
            174 -366 rlineto
            -124 return
          </CharString>
          <CharString index="13">
            0 61 115 -20 hstemhm
            return
          </CharString>
          <CharString index="14">
            10 0 80 154 80 356 -43 callgsubr
            -105 callsubr
            return
          </CharString>
          <CharString index="15">
            hlineto
            -25 callgsubr
            -193 hlineto
            -40 callsubr
            return
          </CharString>
          <CharString index="16">
            -176 -590 rlineto
            -50 -66 callsubr
            -70 hlineto
            return
          </CharString>
          <CharString index="17">
            104 -54 callgsubr
            return
          </CharString>
          <CharString index="18">
            0 86 478 86 -94 callsubr
            80 92 306 92 hintmask 11011100
            -107 callsubr
            return
          </CharString>
          <CharString index="19">
            60 -460 -96 callsubr
            460 vlineto
            return
          </CharString>
          <CharString index="20">
            vlineto
            -57 callgsubr
            return
          </CharString>
          <CharString index="21">
            -101 -89 callgsubr
            endchar
          </CharString>
          <CharString index="22">
            -80 callgsubr
            -76 callgsubr
            return
          </CharString>
          <CharString index="23">
            0 80 -80 196 return
          </CharString>
          <CharString index="24">
            -11 11 callsubr
            255 -68 callsubr
            750 rmoveto
            -80 49 callsubr
            -70 -80 476 -65 callsubr
            -85 callgsubr
            return
          </CharString>
          <CharString index="25">
            70 -531 -92 callsubr
            531 vlineto
            return
          </CharString>
          <CharString index="26">
            -116 -234 -78 callsubr
            vlineto
            return
          </CharString>
          <CharString index="27">
            -250 40 vlineto
            60 160 rlineto
            90 vlineto
            return
          </CharString>
          <CharString index="28">
            hlineto
            63 -65 rlineto
            -85 80 -31 callgsubr
            return
          </CharString>
          <CharString index="29">
            -32 callgsubr
            80 -27 callsubr
            return
          </CharString>
          <CharString index="30">
            750 rmoveto
            -80 return
          </CharString>
          <CharString index="31">
            vlineto
            -65 69 48 callgsubr
            -64 -69 rlineto
            -86 65 57 vlineto
            29 30 rlineto
            83 hlineto
            return
          </CharString>
          <CharString index="32">
            -116 80 196 return
          </CharString>
          <CharString index="33">
            rmoveto
            87 hlineto
            35 37 rlineto
            78 vlineto
            -35 37 rlineto
            -87 hlineto
            -35 -37 rlineto
            -78 vlineto
            44 4 rmoveto
            70 69 -70 vlineto
            endchar
          </CharString>
          <CharString index="34">
            hintmask 11110100
            -36 callgsubr
            hintmask 11101100
            49 callsubr
            12 callsubr
            -70 -80 return
          </CharString>
          <CharString index="35">
            -42 callsubr
            226 -61 callsubr
            return
          </CharString>
          <CharString index="36">
            -120 100 120 vlineto
            return
          </CharString>
          <CharString index="37">
            rmoveto
            77 hlineto
            305 819 16 callgsubr
            endchar
          </CharString>
          <CharString index="38">
            80 0 61 115 -20 -72 callsubr
            hintmask 11011010
            448 return
          </CharString>
          <CharString index="39">
            -63 callgsubr
            -24 callsubr
            hintmask 11101110
            80 return
          </CharString>
          <CharString index="40">
            vlineto
            143 -24 rmoveto
            return
          </CharString>
          <CharString index="41">
            -80 212 80 return
          </CharString>
          <CharString index="42">
            196 -80 return
          </CharString>
          <CharString index="43">
            vlineto
            27 27 rlineto
            112 hlineto
            27 -27 rlineto
            return
          </CharString>
          <CharString index="44">
            1 callgsubr
            203 212 return
          </CharString>
          <CharString index="45">
            438 228 rmoveto
            -89 -96 callgsubr
            147 34 callgsubr
            -208 hlineto
            return
          </CharString>
          <CharString index="46">
            222 -152 92 return
          </CharString>
          <CharString index="47">
            rmoveto
            -64 246 64 -87 388 -64 vlineto
            -127 -63 30 -61 89 45 rlineto
            -309 vlineto
            return
          </CharString>
          <CharString index="48">
            rmoveto
            69 -53 130 174 rlineto
            66 vlineto
            -130 174 -69 -53 112 -154 rlineto
            return
          </CharString>
          <CharString index="49">
            -51 callsubr
            endchar
          </CharString>
          <CharString index="50">
            80 hstemhm
            68 174 -162 -41 callsubr
            -92 227 83 76 hintmask 10101001
            80 30 callsubr
            456 vlineto
            hintmask 01110001
            196 -76 vlineto
            hintmask 10110001
            -116 -218 return
          </CharString>
          <CharString index="51">
            rmoveto
            98 -283 rlineto
            -196 hlineto
            return
          </CharString>
          <CharString index="52">
            70 -47 callsubr
            return
          </CharString>
          <CharString index="53">
            80 hstemhm
            20 80 158 -61 callsubr
            hintmask 11101000
            163 86 rmoveto
            -63 65 rlineto
            135 -80 -176 -82 callgsubr
            192 hlineto
            -101 callsubr
            return
          </CharString>
          <CharString index="54">
            -14 callsubr
            490 -63 callgsubr
            hintmask 11011000
            70 650 rmoveto
            -61 callgsubr
            return
          </CharString>
          <CharString index="55">
            -35 callsubr
            490 80 80 return
          </CharString>
          <CharString index="56">
            rmoveto
            -71 callsubr
            return
          </CharString>
          <CharString index="57">
            hintmask 01111111
            723 hmoveto
            71 108 36 64 -36 280 -102 hlineto
            -171 -287 rlineto
            -57 202 vlineto
            -118 64 rmoveto
            118 198 rlineto
            -198 vlineto
            return
          </CharString>
          <CharString index="58">
            -102 callsubr
            -80 28 callgsubr
            return
          </CharString>
          <CharString index="59">
            120 -35 callgsubr
            return
          </CharString>
          <CharString index="60">
            80 -222 -80 hlineto
            return
          </CharString>
          <CharString index="61">
            vlineto
            -25 124 105 -24 rlineto
            100 100 -100 hlineto
            -105 -24 25 124 rlineto
            100 return
          </CharString>
          <CharString index="62">
            80 170 -20 hstem
            285 80 vstem
            285 165 rmoveto
            80 170 170 80 -170 170 -80 -170 -170 -80 170 hlineto
            return
          </CharString>
          <CharString index="63">
            -2 callgsubr
            122 375 -59 callgsubr
            return
          </CharString>
          <CharString index="64">
            -78 callgsubr
            80 return
          </CharString>
          <CharString index="65">
            hstemhm
            70 222 -162 92 return
          </CharString>
          <CharString index="66">
            242 -172 92 return
          </CharString>
          <CharString index="67">
            -51 53 rlineto
            return
          </CharString>
          <CharString index="68">
            -46 callsubr
            -100 3 callgsubr
            hlineto
            endchar
          </CharString>
          <CharString index="69">
            -88 -93 rlineto
            -355 vlineto
            50 21 rmoveto
            314 vlineto
            60 63 rlineto
            279 hlineto
            61 -63 rlineto
            -314 vlineto
            -59 -63 rlineto
            -282 hlineto
            return
          </CharString>
          <CharString index="70">
            70 80 -232 -80 hlineto
            return
          </CharString>
          <CharString index="71">
            -22 callgsubr
            hstemhm
            75 80 306 80 hintmask 10101100
            55 30 callsubr
            486 vlineto
            hintmask 01101100
            -65 callsubr
            vlineto
            hintmask 10011100
            -116 return
          </CharString>
          <CharString index="72">
            -26 callsubr
            -80 return
          </CharString>
          <CharString index="73">
            -20 hstem
            115 215 rmoveto
            -80 vlineto
            420 200 rlineto
            80 vlineto
            -420 200 rlineto
            -80 vlineto
            336 -160 rlineto
            return
          </CharString>
          <CharString index="74">
            -11 -84 callsubr
            139 80 139 -22 callgsubr
            return
          </CharString>
          <CharString index="75">
            -20 hstem
            115 34 callsubr
            vlineto
            420 -200 rlineto
            80 vlineto
            -336 160 336 160 rlineto
            80 vlineto
            return
          </CharString>
          <CharString index="76">
            -14 -21 35 68 230 68 18 68 230 68 34 -20 hstem
            70 24 callgsubr
            198 24 callgsubr
            return
          </CharString>
          <CharString index="77">
            -100 vlineto
            30 -150 rlineto
            40 hlineto
            30 150 rlineto
            100 vlineto
            return
          </CharString>
          <CharString index="78">
            -15 callsubr
            -590 -70 -80 return
          </CharString>
          <CharString index="79">
            -472 -66 callgsubr
            return
          </CharString>
          <CharString index="80">
            -234 -32 callgsubr
            return
          </CharString>
          <CharString index="81">
            -80 252 80 return
          </CharString>
          <CharString index="82">
            150 92 return
          </CharString>
          <CharString index="83">
            234 80 return
          </CharString>
          <CharString index="84">
            -21 callsubr
            0 61 115 -20 hstemhm
            -63 callsubr
            hintmask 11101110
            return
          </CharString>
          <CharString index="85">
            29 callgsubr
            173 216 173 212 cntrmask 00111000
            240 hmoveto
            123 hlineto
            150 return
          </CharString>
          <CharString index="86">
            5 callsubr
            154 80 356 80 return
          </CharString>
          <CharString index="87">
            -40 callsubr
            472 -87 callsubr
            return
          </CharString>
          <CharString index="88">
            80 6 callsubr
            hintmask 11100100
            534 hmoveto
            138 return
          </CharString>
          <CharString index="89">
            -247 550 250 hstem
            70 100 60 100 vstem
            return
          </CharString>
          <CharString index="90">
            hstemhm
            80 73 -73 92 266 return
          </CharString>
          <CharString index="91">
            -47 callgsubr
            70 return
          </CharString>
          <CharString index="92">
            -34 callgsubr
            70 return
          </CharString>
          <CharString index="93">
            -255 0 80 return
          </CharString>
          <CharString index="94">
            hlineto
            hintmask 10110100
            -70 -80 456 hlineto
            hintmask 01110100
            196 -76 vlineto
            hintmask 10101100
            -116 -218 return
          </CharString>
          <CharString index="95">
            12 callgsubr
            hintmask 10101100
            -196 80 vlineto
            hintmask 10011100
            116 283 vlineto
            endchar
          </CharString>
          <CharString index="96">
            0 80 205 80 89 -56 callgsubr
            return
          </CharString>
          <CharString index="97">
            vlineto
            hintmask 10110111
            -75 callsubr
            return
          </CharString>
          <CharString index="98">
            20 -2 callsubr
            return
          </CharString>
          <CharString index="99">
            24 callsubr
            288 80 vstem
            return
          </CharString>
          <CharString index="100">
            250 -40 vlineto
            -60 -160 rlineto
            -90 vlineto
            return
          </CharString>
          <CharString index="101">
            205 234 return
          </CharString>
          <CharString index="102">
            184 hmoveto
            return
          </CharString>
          <CharString index="103">
            238 hlineto
            -101 callsubr
            return
          </CharString>
          <CharString index="104">
            -14 callsubr
            590 80 return
          </CharString>
          <CharString index="105">
            212 26 92 25 212 return
          </CharString>
          <CharString index="106">
            hstem
            50 100 vstem
            50 return
          </CharString>
          <CharString index="107">
            -74 callgsubr
            vlineto
            return
          </CharString>
          <CharString index="108">
            234 -10 callsubr
            -672 vlineto
            hintmask 10101111
            -80 return
          </CharString>
          <CharString index="109">
            29 callgsubr
            223 212 vstem
            280 hmoveto
            127 hlineto
            return
          </CharString>
          <CharString index="110">
            335 80 hstem
            100 34 callsubr
            return
          </CharString>
          <CharString index="111">
            -198 278 -15 callgsubr
            -160 vlineto
            endchar
          </CharString>
          <CharString index="112">
            10 0 80 return
          </CharString>
          <CharString index="113">
            -69 callgsubr
            268 -75 callgsubr
            return
          </CharString>
          <CharString index="114">
            -330 10 callgsubr
            120 77 vstem
            120 return
          </CharString>
          <CharString index="115">
            225 vlineto
            51 -53 rlineto
            -27 callgsubr
            endchar
          </CharString>
          <CharString index="116">
            rlineto
            58 -77 callgsubr
            51 hlineto
            return
          </CharString>
          <CharString index="117">
            -70 48 callsubr
            hlineto
            return
          </CharString>
          <CharString index="118">
            0 80 255 80 return
          </CharString>
          <CharString index="119">
            hlineto
            hintmask 11110100
            return
          </CharString>
          <CharString index="120">
            hlineto
            hintmask 10110001
            -82 -26 rlineto
            -70 vlineto
            hintmask 10100101
            82 26 rlineto
            return
          </CharString>
          <CharString index="121">
            21 callgsubr
            -80 -85 vlineto
            50 callsubr
            return
          </CharString>
          <CharString index="122">
            20 callsubr
            vlineto
            return
          </CharString>
          <CharString index="123">
            12 callsubr
            -16 callgsubr
            hintmask 11110010
            -70 return
          </CharString>
          <CharString index="124">
            12 callsubr
            -16 callgsubr
            hintmask 11101100
            -70 return
          </CharString>
          <CharString index="125">
            vlineto
            hintmask 10101001
            80 80 -242 -80 hlineto
            hintmask 10100101
            70 return
          </CharString>
          <CharString index="126">
            -82 callgsubr
            262 hlineto
            -101 callsubr
            return
          </CharString>
          <CharString index="127">
            -29 callgsubr
            476 return
          </CharString>
          <CharString index="128">
            176 -40 callgsubr
            return
          </CharString>
          <CharString index="129">
            -22 callgsubr
            61 105 hstemhm
            return
          </CharString>
          <CharString index="130" raw="1">
            491d0e   
          </CharString>
          <CharString index="131">
            51 callsubr
            92 return
          </CharString>
          <CharString index="132">
            -173 hlineto
            return
          </CharString>
          <CharString index="133">
            vlineto
            hintmask 11111000
            -218 -80 12 callsubr
            138 return
          </CharString>
          <CharString index="134">
            253 -14 -21 35 -20 128 64 126 return
          </CharString>
          <CharString index="135">
            51 -53 rlineto
            -28 callsubr
            endchar
          </CharString>
          <CharString index="136">
            60 80 hlineto
            return
          </CharString>
          <CharString index="137">
            80 rmoveto
            -80 return
          </CharString>
          <CharString index="138">
            47 callgsubr
            70 80 -204 hlineto
            -189 return
          </CharString>
          <CharString index="139">
            hlineto
            -142 -475 -141 475 rlineto
            return
          </CharString>
          <CharString index="140" raw="1">
            f84216f7 68db0b  
          </CharString>
          <CharString index="141">
            415 rmoveto
            -80 return
          </CharString>
          <CharString index="142">
            vlineto
            -74 77 rlineto
            hintmask 11111000
            54 57 rlineto
            return
          </CharString>
          <CharString index="143">
            -70 -80 426 vlineto
            -101 callsubr
            return
          </CharString>
          <CharString index="144">
            136 rmoveto
            138 -87 callsubr
            return
          </CharString>
          <CharString index="145">
            vlineto
            hintmask 10101111
            58 59 rlineto
            218 return
          </CharString>
          <CharString index="146">
            199 hlineto
            hintmask 11111000
            57 -59 rlineto
            return
          </CharString>
          <CharString index="147">
            hlineto
            -101 callsubr
            207 vlineto
            return
          </CharString>
          <CharString index="148">
            hlineto
            -104 -54 callgsubr
            -196 vlineto
            return
          </CharString>
          <CharString index="149">
            rlineto
            -99 hlineto
            -19 -69 rlineto
            99 hlineto
            return
          </CharString>
          <CharString index="150">
            vlineto
            149 -30 rmoveto
            -57 59 rlineto
            return
          </CharString>
          <CharString index="151">
            70 -77 callsubr
            return
          </CharString>
          <CharString index="152">
            -129 -21 150 return
          </CharString>
          <CharString index="153">
            vlineto
            hintmask 11101000
            return
          </CharString>
          <CharString index="154">
            rlineto
            208 hlineto
            return
          </CharString>
          <CharString index="155">
            -80 242 80 return
          </CharString>
          <CharString index="156">
            70 -590 return
          </CharString>
          <CharString index="157">
            -64 -65 rlineto
            return
          </CharString>
          <CharString index="158">
            86 hstem
            80 return
          </CharString>
          <CharString index="159">
            hlineto
            -169 return
          </CharString>
        <CharString name=".notdef">
          -297 endchar
        </CharString>
        <CharString name="A">
          -21 callsubr
          -37 callgsubr
          -79 callgsubr
          endchar
        </CharString>
        <CharString name="AE">
          300 -84 callsubr
          139 80 139 -50 callgsubr
          255 234 80 -234 255 1 callsubr
          46 vlineto
          -91 callsubr
          76 255 rlineto
          228 -255 hlineto
          -128 590 rmoveto
          128 -255 -204 hlineto
          endchar
        </CharString>
        <CharString name="Aacute">
          -23 callsubr
          -105 callsubr
          184 612 -70 callgsubr
        </CharString>
        <CharString name="Acircumflex">
          -93 callsubr
          52 602 -106 callgsubr
        </CharString>
        <CharString name="Adieresis">
          10 0 80 154 80 356 2 callgsubr
          -105 callsubr
          hintmask 11110110
          145 497 -86 callgsubr
        </CharString>
        <CharString name="Agrave">
          -23 callsubr
          -79 callgsubr
          -10 529 -68 callgsubr
        </CharString>
        <CharString name="Aring">
          -21 callsubr
          51 41 70 41 hstem
          1 callgsubr
          23 44 69 44 23 212 vstem
          462 750 rmoveto
          -267 -80 46 hlineto
          -49 callgsubr
          hlineto
          -134 -15 -55 callgsubr
          58 487 -74 callsubr
        </CharString>
        <CharString name="Atilde">
          -93 callsubr
          172 497 -104 callgsubr
        </CharString>
        <CharString name="B">
          37 0 86 270 80 228 86 hstemhm
          -25 callsubr
          256 86 -66 86 hintmask 11110100
          -29 callsubr
          420 vlineto
          -101 callsubr
          216 35 callsubr
          180 -102 callgsubr
          -20 -664 rmoveto
          -218 270 213 12 callsubr
          63 -65 rlineto
          -146 vlineto
          -78 291 rmoveto
          -198 228 39 callsubr
          -110 vlineto
          endchar
        </CharString>
        <CharString name="C">
          -47 0 86 578 -8 callsubr
          223 86 rmoveto
          -20 callsubr
          173 -79 callsubr
          -252 hlineto
          -104 -54 callgsubr
          -530 vlineto
          104 -110 rlineto
          252 14 callsubr
          endchar
        </CharString>
        <CharString name="Ccedilla">
          -47 45 callsubr
          86 578 -62 callgsubr
          472 vlineto
          52 53 rlineto
          173 -79 callsubr
          -252 hlineto
          -104 -54 callgsubr
          -530 -82 callgsubr
          endchar
        </CharString>
        <CharString name="D">
          43 0 86 578 -8 callgsubr
          vstem
          -29 callsubr
          426 vlineto
          104 110 rlineto
          530 -3 callgsubr
          -664 rmoveto
          578 225 vlineto
          28 callsubr
        </CharString>
        <CharString name="Delta">
          60 0 80 670 -20 hstem
          40 30 callsubr
          627 80 vlineto
          -250 670 rlineto
          -127 hlineto
          285 -670 rmoveto
          -443 hlineto
          221 593 rlineto
          endchar
        </CharString>
        <CharString name="E">
          -33 callsubr
          hstemhm
          -25 callsubr
          -24 callsubr
          hintmask 10101110
          15 callgsubr
          hintmask 01110110
          -65 callsubr
          vlineto
          hintmask 10101110
          -85 callgsubr
          endchar
        </CharString>
        <CharString name="Eacute">
          -83 callsubr
          -161 176 -70 callgsubr
        </CharString>
        <CharString name="Ecircumflex">
          -33 callsubr
          61 105 hstemhm
          -25 callsubr
          -24 callsubr
          hintmask 10101111
          15 callgsubr
          hintmask 01110111
          -65 callsubr
          vlineto
          hintmask 10101111
          -85 callgsubr
          -293 -98 callgsubr
        </CharString>
        <CharString name="Edieresis">
          -33 callsubr
          61 101 hstemhm
          -25 callsubr
          -65 35 callgsubr
          28 80 hintmask 1010111011000000
          15 callgsubr
          hintmask 0111011011000000
          -65 callsubr
          vlineto
          hintmask 1010111011000000
          -81 callsubr
          hintmask 1010110111000000
          -76 callgsubr
          -379 61 -73 callgsubr
        </CharString>
        <CharString name="Egrave">
          -83 callsubr
          -355 93 -68 callgsubr
        </CharString>
        <CharString name="Eth">
          43 0 86 249 80 249 -8 callgsubr
          cntrmask 11100000
          -15 callsubr
          -255 -63 -80 63 -255 36 callsubr
          530 -3 callgsubr
          -664 rmoveto
          249 154 80 -154 249 225 vlineto
          28 callsubr
        </CharString>
        <CharString name="Euro">
          0 86 164 70 110 70 164 86 hstem
          130 92 vstem
          72 500 rmoveto
          -70 58 -110 -58 -70 58 -140 -82 callgsubr
          272 hlineto
          85 90 -61 61 50 callsubr
          -193 hlineto
          -40 callsubr
          111 276 70 -276 110 276 70 -276 111 -87 callsubr
          193 hlineto
          63 -64 61 61 -85 89 rlineto
          -272 hlineto
          -104 -54 callgsubr
          -140 vlineto
          endchar
        </CharString>
        <CharString name="F">
          -51 11 callsubr
          139 -56 callgsubr
          hintmask 11011010
          -36 callgsubr
          hintmask 11010110
          49 callsubr
          hlineto
          hintmask 11101010
          10 callsubr
          hintmask 11010110
          -80 -78 callsubr
          hlineto
          hintmask 11011010
          -76 callgsubr
          endchar
        </CharString>
        <CharString name="G">
          -27 0 86 219 80 279 -7 callgsubr
          472 vlineto
          52 53 rlineto
          183 -79 callsubr
          -262 hlineto
          -104 -54 callgsubr
          -530 19 callsubr
          275 26 callsubr
          -154 hlineto
          50 callsubr
          endchar
        </CharString>
        <CharString name="H">
          145 11 callsubr
          255 -67 callgsubr
          238 -75 callgsubr
          cntrmask 11100000
          -73 callsubr
          232 80 hlineto
          hintmask 11101010
          -70 255 308 -255 16 callsubr
          590 -52 callgsubr
          hintmask 11101010
          70 -255 -308 255 41 callgsubr
        </CharString>
        <CharString name="I">
          -3 callsubr
          11 callgsubr
          80 rmoveto
          -35 callsubr
          590 80 80 -252 -80 80 -590 vlineto
          endchar
        </CharString>
        <CharString name="Iacute">
          -53 callgsubr
          -43 21 callsubr
          hintmask 10111000
          -97 callsubr
        </CharString>
        <CharString name="Icircumflex">
          -3 callsubr
          61 105 hstem
          150 92 vstem
          -48 callgsubr
          -175 -98 callgsubr
        </CharString>
        <CharString name="Idieresis">
          -255 0 80 590 14 callgsubr
          0 callgsubr
          hintmask 11101000
          80 -590 12 callsubr
          -80 -26 callsubr
          47 callgsubr
          -80 590 -21 callgsubr
        </CharString>
        <CharString name="Igrave">
          -53 callgsubr
          -237 93 rmoveto
          hintmask 10111000
          -100 callsubr
        </CharString>
        <CharString name="J">
          -107 0 86 584 -54 callsubr
          560 18 callgsubr
          -531 hlineto
          -25 callgsubr
          endchar
        </CharString>
        <CharString name="K">
          22 11 callsubr
          255 -12 callgsubr
          -51 vlineto
          -191 301 182 289 rlineto
          50 -77 callgsubr
          59 hlineto
          -160 -255 rlineto
          -84 255 -52 callgsubr
          hintmask 11101100
          49 callsubr
          17 callsubr
          255 91 hlineto
          162 -255 rlineto
          -58 -80 hlineto
          endchar
        </CharString>
        <CharString name="L">
          -91 -84 callsubr
          474 -28 callgsubr
          218 76 hintmask 10110100
          -36 callgsubr
          hintmask 10101100
          49 callsubr
          -13 callsubr
          590 43 callgsubr
        </CharString>
        <CharString name="Lslash">
          -91 -84 callsubr
          474 -57 callsubr
          261 4 callgsubr
          259 18 callsubr
          -289 13 callsubr
          -231 vlineto
          endchar
        </CharString>
        <CharString name="M">
          299 0 80 590 -67 callgsubr
          392 -75 callgsubr
          hintmask 11101000
          -36 callgsubr
          hintmask 11011000
          49 callsubr
          hlineto
          -42 callgsubr
          hintmask 11010100
          -70 537 hlineto
          187 -537 rlineto
          88 hlineto
          187 537 rlineto
          -537 vlineto
          -42 callgsubr
          hintmask 11100100
          -70 590 31 callsubr
          -556 -189 556 rlineto
          endchar
        </CharString>
        <CharString name="N">
          165 0 80 590 -19 callsubr
          670 17 callgsubr
          -557 hlineto
          -292 637 rlineto
          -208 -80 hlineto
          hintmask 11011000
          49 callsubr
          -18 callgsubr
          556 hlineto
          endchar
        </CharString>
        <CharString name="Ntilde">
          165 0 80 590 13 callgsubr
          6 callsubr
          -73 callsubr
          232 80 hlineto
          hintmask 11101010
          -70 556 hlineto
          292 -636 rlineto
          138 670 -52 callgsubr
          hintmask 11110010
          70 -557 hlineto
          -292 637 rlineto
          189 61 -104 callgsubr
        </CharString>
        <CharString name="O">
          0 86 578 24 callsubr
          306 -103 callgsubr
          endchar
        </CharString>
        <CharString name="OE">
          288 -84 callsubr
          139 80 139 -38 callgsubr
          255 235 80 -235 255 -4 callgsubr
          -530 43 callsubr
          472 38 callsubr
          -590 hlineto
          endchar
        </CharString>
        <CharString name="Oacute">
          0 86 578 86 -94 callsubr
          80 92 306 92 hintmask 11011100
          -107 callgsubr
          -19 840 -40 callgsubr
          hintmask 10111100
          -97 callsubr
        </CharString>
        <CharString name="Ocircumflex">
          0 86 578 86 61 105 hstem
          80 92 306 -103 callgsubr
          -151 830 -106 callgsubr
        </CharString>
        <CharString name="Odieresis">
          0 86 578 86 61 101 hstem
          80 92 17 35 callgsubr
          18 -103 callgsubr
          -237 725 -73 callgsubr
        </CharString>
        <CharString name="Ograve">
          0 86 578 86 -94 callsubr
          80 92 306 92 hintmask 11011100
          -107 callgsubr
          -213 757 rmoveto
          hintmask 10111100
          -100 callsubr
        </CharString>
        <CharString name="Omega">
          156 0 80 100 76 408 86 hstem
          97 92 71 82 119 82 72 92 vstem
          201 180 rmoveto
          59 -100 -180 -80 262 256 -92 hlineto
          -61 63 rlineto
          292 -87 callsubr
          323 hlineto
          51 -53 rlineto
          -292 vlineto
          -62 -63 rlineto
          -92 -256 262 80 -180 100 60 hlineto
          -101 callsubr
          350 -102 callgsubr
          -402 hlineto
          -104 -54 callgsubr
          -350 vlineto
          endchar
        </CharString>
        <CharString name="Oslash">
          -59 -21 80 86 578 86 80 32 callgsubr
          -80 rmoveto
          77 hlineto
          27 80 rlineto
          228 hlineto
          -101 callsubr
          530 vlineto
          -87 92 33 98 16 callgsubr
          -27 -80 rlineto
          -228 hlineto
          -104 -54 callgsubr
          -530 vlineto
          87 -92 rlineto
          5 593 rmoveto
          -57 callgsubr
          159 hlineto
          -185 -553 -26 28 rlineto
          306 472 rmoveto
          -28 callsubr
          -159 hlineto
          185 552 rlineto
          endchar
        </CharString>
        <CharString name="Otilde">
          0 86 578 86 61 105 hstem
          80 92 306 -103 callgsubr
          -30 725 -104 callgsubr
        </CharString>
        <CharString name="P">
          -23 0 80 220 86 278 86 -41 callgsubr
          256 86 -73 callsubr
          242 80 hlineto
          hintmask 11101100
          -80 220 -4 callsubr
          230 -102 callgsubr
          hintmask 11110100
          -40 -364 rmoveto
          hintmask 11101100
          4 callsubr
        </CharString>
        <CharString name="Q">
          -79 -21 100 86 578 24 callsubr
          115 75 116 92 vstem
          -5 callsubr
          103 -100 75 100 104 -105 callgsubr
          -51 53 rlineto
          472 -98 callsubr
          -28 callsubr
          -64 150 -75 -150 hlineto
          endchar
        </CharString>
        <CharString name="R">
          52 0 80 230 86 268 86 hstemhm
          80 -61 callsubr
          209 188 -141 86 -73 callsubr
          222 80 hlineto
          hintmask 11101100
          -60 230 141 hlineto
          107 -230 rlineto
          -39 -80 188 80 -52 hlineto
          -107 230 rlineto
          hintmask 11110010
          -101 callsubr
          220 -102 callgsubr
          -40 -354 rmoveto
          hintmask 11101010
          -198 268 -15 callgsubr
          -150 vlineto
          endchar
        </CharString>
        <CharString name="S">
          -47 0 86 251 86 241 86 -17 callsubr
          92 hintmask 11110100
          -64 callgsubr
          hintmask 11101100
          -60 callgsubr
          endchar
        </CharString>
        <CharString name="Scaron">
          -47 0 86 251 86 241 86 61 105 -17 callsubr
          92 hintmask 11111010
          -64 callgsubr
          hintmask 11110110
          -60 callgsubr
          -41 474 -93 callgsubr
        </CharString>
        <CharString name="T">
          -67 36 callgsubr
          20 76 148 92 148 31 callgsubr
          590 148 39 callgsubr
          -540 40 callgsubr
          148 -590 -100 -80 vlineto
          endchar
        </CharString>
        <CharString name="Thorn">
          -23 0 80 74 86 278 86 66 80 hstemhm
          80 162 -92 92 256 86 hintmask 11111010
          -36 callgsubr
          hintmask 11110110
          49 callsubr
          hlineto
          hintmask 11111010
          -70 -80 162 154 -4 callsubr
          230 -102 callgsubr
          -238 146 hlineto
          198 -510 rmoveto
          4 callsubr
        </CharString>
        <CharString name="U">
          93 0 86 584 80 -72 callsubr
          hintmask 11101000
          448 0 callgsubr
          hintmask 11010100
          -82 callsubr
          hintmask 11101000
          -55 callsubr
          hintmask 11010100
          -88 callgsubr
          hintmask 11101000
          29 callsubr
          endchar
        </CharString>
        <CharString name="Uacute">
          -95 callgsubr
          -218 21 callsubr
          hintmask 10111010
          -97 callsubr
        </CharString>
        <CharString name="Ucircumflex">
          93 0 86 584 13 callgsubr
          -72 callsubr
          hintmask 11110100
          448 0 callgsubr
          hintmask 11101010
          -82 callsubr
          hintmask 11110100
          -55 callsubr
          hintmask 11101010
          -88 callgsubr
          hintmask 11110100
          29 callsubr
          -350 -98 callgsubr
        </CharString>
        <CharString name="Udieresis">
          93 0 86 584 -24 callgsubr
          0 callgsubr
          46 callgsubr
          -82 callsubr
          hintmask 1111001010000000
          -55 callsubr
          46 callgsubr
          -88 callgsubr
          hintmask 1111000100000000
          29 callsubr
          46 callgsubr
          -257 61 -86 callgsubr
        </CharString>
        <CharString name="Ugrave">
          -95 callgsubr
          -412 93 rmoveto
          hintmask 10111010
          -100 callsubr
        </CharString>
        <CharString name="V">
          40 21 -21 670 2 callsubr
          209 670 rlineto
          51 -77 callgsubr
          69 hlineto
          -181 -579 -180 579 rlineto
          69 -77 callgsubr
          51 hlineto
          endchar
        </CharString>
        <CharString name="W">
          379 21 -21 670 -22 callsubr
          579 150 -579 rlineto
          123 hlineto
          173 670 rlineto
          47 -77 callgsubr
          73 hlineto
          -145 -560 -145 560 rlineto
          44 80 -216 -80 43 hlineto
          -145 -560 -145 560 rlineto
          74 -77 callgsubr
          46 hlineto
          endchar
        </CharString>
        <CharString name="X">
          2 0 80 590 6 callgsubr
          -59 vlineto
          140 224 142 -224 rlineto
          -58 -66 callsubr
          -51 hlineto
          -190 300 181 290 rlineto
          50 -77 callgsubr
          59 hlineto
          -130 -208 -132 208 9 callsubr
          180 -284 -191 -306 rlineto
          -50 -80 hlineto
          endchar
        </CharString>
        <CharString name="Y">
          -40 0 80 590 80 hstem
          -9 callsubr
          vstem
          -94 callgsubr
          -90 -80 vlineto
          endchar
        </CharString>
        <CharString name="Yacute">
          -40 0 80 590 -1 callgsubr
          -9 callsubr
          hintmask 11011110
          -94 callgsubr
          -90 -80 vlineto
          218 926 -40 callgsubr
          hintmask 10111110
          -97 callsubr
        </CharString>
        <CharString name="Ydieresis">
          -40 0 80 590 80 61 101 hstemhm
          20 212 -64 92 -2 92 -3 92 -64 212 hintmask 11110101
          -94 callgsubr
          vlineto
          hintmask 11101010
          -90 -80 hlineto
          811 5 callgsubr
        </CharString>
        <CharString name="Z">
          -51 -84 callsubr
          358 -36 callsubr
          -303 vlineto
          383 590 -12 callsubr
        </CharString>
        <CharString name="Zcaron">
          -51 -84 callsubr
          358 -39 callgsubr
          -303 vlineto
          383 590 -65 callgsubr
        </CharString>
        <CharString name="a">
          -20 callgsubr
          -37 callgsubr
          -99 callgsubr
          endchar
        </CharString>
        <CharString name="aacute">
          -23 callgsubr
          195 -74 callgsubr
          42 vlineto
          -49 callsubr
          80 hlineto
          -134 -83 -56 callsubr
          211 542 -70 callgsubr
        </CharString>
        <CharString name="acircumflex">
          -11 callgsubr
          462 650 rmoveto
          -267 -80 42 hlineto
          -49 callsubr
          hlineto
          -134 -3 -56 callsubr
          49 532 -106 callgsubr
        </CharString>
        <CharString name="acute">
          37 callgsubr
          324 826 rmoveto
          -194 -77 -97 callsubr
        </CharString>
        <CharString name="adieresis">
          10 0 80 124 80 286 2 callgsubr
          462 650 rmoveto
          -267 -80 42 hlineto
          -49 callsubr
          hlineto
          -134 -3 -56 callsubr
          hintmask 11110110
          142 427 -86 callgsubr
        </CharString>
        <CharString name="ae">
          300 -84 callsubr
          89 80 89 -50 callgsubr
          205 234 80 -234 205 1 callsubr
          42 vlineto
          -169 -490 rlineto
          -53 -66 callsubr
          -67 hlineto
          71 205 rlineto
          230 -205 hlineto
          -132 490 rmoveto
          132 -205 -203 hlineto
          endchar
        </CharString>
        <CharString name="agrave">
          -23 callgsubr
          -99 callgsubr
          -13 459 -68 callgsubr
        </CharString>
        <CharString name="ampersand">
          27 0 86 249 80 249 86 hstem
          50 86 12 86 cntrmask 11100000
          290 664 rmoveto
          120 hlineto
          63 -65 rlineto
          -55 80 96 -102 callgsubr
          -197 hlineto
          -104 -54 callgsubr
          -148 vlineto
          54 -77 rlineto
          -102 hlineto
          -50 -62 rlineto
          -243 -82 callgsubr
          208 hlineto
          59 101 71 -101 rlineto
          162 80 -107 hlineto
          -75 106 88 149 rlineto
          57 80 -104 hlineto
          -91 -157 -188 269 rlineto
          78 vlineto
          88 -519 rmoveto
          -128 hlineto
          -58 59 rlineto
          190 122 vlineto
          114 -163 rlineto
          endchar
        </CharString>
        <CharString name="approxequal">
          186 79 0 79 63 80 -7 80 hstemhm
          hintmask 10100000
          115 525 rmoveto
          -80 vlineto
          -28 26 35 -10 36 hhcurveto
          hintmask 10010000
          87 47 73 86 hhcurveto
          37 37 -12 -23 29 hvcurveto
          80 vlineto
          23 -30 -38 12 -38 hhcurveto
          hintmask 10100000
          -84 -48 -73 -85 hhcurveto
          -36 -36 11 27 -25 hvcurveto
          -220 vmoveto
          -80 vlineto
          -29 25 36 -10 37 87 47 79 85 hhcurveto
          37 38 -14 -26 28 hvcurveto
          80 vlineto
          hintmask 01100000
          26 -29 -38 13 -38 -85 -46 -79 -87 hhcurveto
          -36 -36 13 27 -25 hvcurveto
          endchar
        </CharString>
        <CharString name="aring">
          -20 callgsubr
          51 41 70 41 hstem
          1 callgsubr
          23 44 69 44 23 212 vstem
          -99 callgsubr
          55 417 -74 callsubr
        </CharString>
        <CharString name="asciicircum">
          520 -21 251 -20 hstem
          365 -77 callsubr
          hlineto
          -140 -251 rlineto
          80 hlineto
          100 179 100 -179 rlineto
          80 hlineto
          endchar
        </CharString>
        <CharString name="asciitilde">
          302 -21 180 -20 hstem
          389 281 rmoveto
          120 28 56 98 -75 43 -36 -63 -45 -12 -148 86 -120 -28 -56 -98 75 -43 36 63 45 12 rlineto
          endchar
        </CharString>
        <CharString name="asterisk">
          -180 452 -21 369 -20 hstem
          194 80 vstem
          40 630 rmoveto
          86 -28 68 -6 -52 -46 -52 -72 64 -47 53 73 27 63 28 -64 52 -71 65 46 -53 73 -52 45 69 7 84 27 -24 76 -85 -27 -60 -36 16 67 rlineto
          90 -80 -90 vlineto
          15 -67 -59 35 -85 28 rlineto
          endchar
        </CharString>
        <CharString name="at">
          303 -100 80 70 224 -80 80 396 80 hstemhm
          100 80 590 80 hintmask 11011100
          769 -20 rmoveto
          -530 hlineto
          -59 61 rlineto
          568 vlineto
          59 61 rlineto
          472 hlineto
          59 -62 rlineto
          -273 vlineto
          -59 -61 rlineto
          -54 hlineto
          -103 326 rlineto
          -127 hlineto
          -174 -550 rlineto
          92 hlineto
          hintmask 10111100
          45 144 rlineto
          200 hlineto
          hintmask 11011100
          46 -144 rlineto
          92 hlineto
          hintmask 10111100
          -46 144 rlineto
          64 hlineto
          -101 callsubr
          336 -102 callgsubr
          -542 hlineto
          -104 -54 callgsubr
          -630 -82 callgsubr
          565 hlineto
          -279 610 rmoveto
          75 -236 rlineto
          -149 hlineto
          endchar
        </CharString>
        <CharString name="atilde">
          -11 callgsubr
          195 -74 callgsubr
          42 vlineto
          -49 callsubr
          80 hlineto
          -134 -83 -56 callsubr
          169 427 -104 callgsubr
        </CharString>
        <CharString name="b">
          37 0 86 210 80 188 86 hstemhm
          -25 callsubr
          256 86 -66 86 hintmask 11110100
          -29 callgsubr
          420 vlineto
          -101 callsubr
          156 35 callsubr
          140 -102 callgsubr
          -20 -564 rmoveto
          -218 210 213 12 callsubr
          63 -65 rlineto
          -86 vlineto
          -78 231 rmoveto
          -198 188 39 callsubr
          -70 vlineto
          endchar
        </CharString>
        <CharString name="backslash">
          -255 10 callgsubr
          82 830 rmoveto
          -77 hlineto
          305 -910 rlineto
          77 hlineto
          endchar
        </CharString>
        <CharString name="bar">
          7 callsubr
          -80 rmoveto
          77 910 -77 hlineto
          endchar
        </CharString>
        <CharString name="braceleft">
          -9 callgsubr
          219 308 rmoveto
          -73 67 73 67 -22 269 -57 callgsubr
          65 86 -105 hlineto
          -104 -110 22 -279 -62 -53 rlineto
          -66 vlineto
          62 -53 -22 -279 -90 callsubr
          105 86 -65 hlineto
          -52 53 rlineto
          endchar
        </CharString>
        <CharString name="braceright">
          -9 callgsubr
          133 442 rmoveto
          73 -67 -73 -67 22 -269 -25 callgsubr
          -65 -86 105 hlineto
          104 110 -22 279 62 53 rlineto
          66 vlineto
          -62 53 22 279 -104 110 rlineto
          -105 -86 65 hlineto
          52 -53 rlineto
          endchar
        </CharString>
        <CharString name="bracketleft">
          44 callgsubr
          120 92 -92 202 hintmask 11010000
          120 -100 rmoveto
          202 60 hlineto
          hintmask 11100000
          -110 20 rlineto
          790 vlineto
          hintmask 11010000
          110 20 rlineto
          60 -202 vlineto
          endchar
        </CharString>
        <CharString name="bracketright">
          44 callgsubr
          30 202 -92 92 hintmask 11010000
          140 770 rmoveto
          -790 vlineto
          hintmask 11100000
          -110 -20 rlineto
          -60 202 950 -202 -60 vlineto
          endchar
        </CharString>
        <CharString name="breve">
          -290 711 61 -61 105 hstemhm
          hintmask 10000000
          139 772 rmoveto
          hintmask 01000000
          44 -79 -68 vlineto
          35 -37 rlineto
          167 hlineto
          35 37 rlineto
          68 -79 vlineto
          hintmask 10000000
          -44 vlineto
          endchar
        </CharString>
        <CharString name="brokenbar">
          7 callsubr
          520 rmoveto
          77 310 -77 hlineto
          -910 vmoveto
          77 310 -77 hlineto
          endchar
        </CharString>
        <CharString name="bullet">
          -347 279 192 hstem
          70 160 vstem
          70 471 rmoveto
          -192 160 192 vlineto
          endchar
        </CharString>
        <CharString name="c">
          -47 0 86 478 -8 callsubr
          223 86 rmoveto
          -40 callsubr
          372 -87 callsubr
          173 -79 callsubr
          -252 hlineto
          -104 -54 callgsubr
          -430 vlineto
          104 -110 rlineto
          252 14 callsubr
          endchar
        </CharString>
        <CharString name="caron">
          -250 711 105 hstem
          248 711 -93 callgsubr
        </CharString>
        <CharString name="ccedilla">
          -47 45 callsubr
          86 478 -62 callgsubr
          372 -87 callsubr
          173 -79 callsubr
          -252 hlineto
          -104 -54 callgsubr
          -430 -82 callgsubr
          endchar
        </CharString>
        <CharString name="cedilla">
          -447 45 callsubr
          -20 hstem
          60 -10 callgsubr
          endchar
        </CharString>
        <CharString name="cent">
          22 -21 99 86 378 86 101 -20 hstem
          100 92 121 70 vstem
          313 1 rmoveto
          70 99 113 hlineto
          85 90 -61 61 50 callsubr
          -73 378 74 hlineto
          63 -65 61 61 -85 90 rlineto
          -113 101 -70 -101 -109 hlineto
          -104 -54 callgsubr
          -330 -82 callgsubr
          109 hlineto
          -70 86 rmoveto
          -51 53 30 callgsubr
          -87 callsubr
          69 -378 hlineto
          endchar
        </CharString>
        <CharString name="circumflex">
          -250 711 105 hstem
          149 816 -106 callgsubr
        </CharString>
        <CharString name="colon">
          -447 0 120 280 22 callgsubr
          120 -51 callsubr
          -100 400 -58 callsubr
        </CharString>
        <CharString name="comma">
          -33 callgsubr
        </CharString>
        <CharString name="copyright">
          53 261 50 -50 227 -134 68 151 228 -161 68 43 50 hstemhm
          100 50 66 70 150 64 50 50 hintmask 1010111111000000
          7 callgsubr
          hintmask 1011001111000000
          -88 93 rlineto
          -324 hlineto
          hintmask 1010111111000000
          -38 callsubr
          101 111 rmoveto
          -24 24 rlineto
          170 vlineto
          24 24 rlineto
          94 hlineto
          32 -33 rlineto
          hintmask 1011001111000000
          -34 64 66 vlineto
          hintmask 1010111111000000
          -65 69 rlineto
          -154 hlineto
          -65 -69 rlineto
          -216 -6 callgsubr
          hintmask 0101001111000000
          65 -64 -34 vlineto
          hintmask 1011001111000000
          -32 -32 rlineto
          endchar
        </CharString>
        <CharString name="d">
          43 0 86 478 -8 callgsubr
          vstem
          -29 callgsubr
          426 vlineto
          104 110 rlineto
          430 -3 callgsubr
          -564 rmoveto
          478 8 callsubr
        </CharString>
        <CharString name="dagger">
          -87 -79 -21 600 -13 callgsubr
          -500 100 500 -39 callsubr
        </CharString>
        <CharString name="daggerdbl">
          -87 -79 -21 200 100 300 -13 callgsubr
          3 callgsubr
          -100 9 callgsubr
          -100 100 100 -46 callsubr
          -39 callsubr
        </CharString>
        <CharString name="degree">
          -246 500 68 165 68 hstem
          50 24 callgsubr
          vstem
          115 500 rmoveto
          -26 callgsubr
          163 -71 callgsubr
          -163 vlineto
          95 -1 rmoveto
          -27 27 rlineto
          111 -64 callsubr
          -111 vlineto
          -27 -27 rlineto
          endchar
        </CharString>
        <CharString name="dieresis">
          -250 711 101 hstem
          63 35 callgsubr
          vstem
          63 711 -73 callgsubr
        </CharString>
        <CharString name="divide">
          115 120 100 80 100 120 hstem
          275 100 cntrmask 11100000
          115 415 -14 callgsubr
          -260 220 -51 callsubr
          -100 -400 -58 callsubr
        </CharString>
        <CharString name="dollar">
          -79 -21 100 86 251 86 241 86 100 -20 hstem
          100 92 108 70 108 92 cntrmask 00000111
          447 664 rmoveto
          23 callgsubr
          -116 100 -70 -100 -96 41 callsubr
          102 -107 rlineto
          98 -251 -96 hlineto
          -61 61 -61 -61 82 -86 rlineto
          136 -100 70 100 96 40 callsubr
          -101 106 rlineto
          -99 241 hlineto
          60 -327 33 callgsubr
          -57 251 hlineto
          -178 37 callsubr
          56 -241 -59 hlineto
          endchar
        </CharString>
        <CharString name="dotaccent">
          -430 711 101 hstem
          58 101 vstem
          58 711 rmoveto
          101 101 -101 hlineto
          endchar
        </CharString>
        <CharString name="dotlessi">
          -44 callgsubr
        </CharString>
        <CharString name="e">
          -11 -84 callsubr
          89 80 89 -22 callgsubr
          hstemhm
          -25 callsubr
          -24 callsubr
          hintmask 10101110
          15 callsubr
          hintmask 01110110
          -65 callsubr
          vlineto
          hintmask 10101110
          -85 callsubr
          endchar
        </CharString>
        <CharString name="eacute">
          -83 callgsubr
          -131 176 -70 callgsubr
        </CharString>
        <CharString name="ecircumflex">
          -11 -84 callsubr
          89 80 89 22 callsubr
          -25 callsubr
          -24 callsubr
          hintmask 10101111
          15 callsubr
          hintmask 01110111
          -65 callsubr
          vlineto
          hintmask 10101111
          -85 callsubr
          -293 -98 callgsubr
        </CharString>
        <CharString name="edieresis">
          -11 -84 callsubr
          89 80 89 -22 callgsubr
          61 101 hstemhm
          -25 callsubr
          -65 35 callgsubr
          28 80 hintmask 1010111011000000
          15 callsubr
          hintmask 0111011011000000
          -65 callsubr
          vlineto
          hintmask 1010111011000000
          -80 callgsubr
          hintmask 1010110111000000
          -76 callgsubr
          -379 61 -73 callgsubr
        </CharString>
        <CharString name="egrave">
          -83 callgsubr
          -355 93 -68 callgsubr
        </CharString>
        <CharString name="eight">
          0 86 251 86 241 86 hstem
          90 92 286 92 vstem
          90 110 rmoveto
          -90 callsubr
          262 40 callsubr
          -65 68 56 59 42 callgsubr
          -243 41 callsubr
          55 -58 -65 -69 rlineto
          330 20 33 callgsubr
          -183 hlineto
          -52 53 rlineto
          149 vlineto
          48 49 rlineto
          -38 37 callsubr
          163 hlineto
          52 -53 rlineto
          -138 vlineto
          -49 -50 rlineto
          -169 hlineto
          endchar
        </CharString>
        <CharString name="ellipsis">
          -47 0 120 hstem
          50 100 100 100 100 100 cntrmask 01110000
          50 120 -51 callsubr
          100 hmoveto
          -71 callsubr
          100 hmoveto
          -71 callsubr
          endchar
        </CharString>
        <CharString name="emdash">
          74 3 callsubr
          521 80 vlineto
          endchar
        </CharString>
        <CharString name="endash">
          -46 3 callsubr
          401 80 vlineto
          endchar
        </CharString>
        <CharString name="equal">
          215 80 160 80 hstem
          115 535 -14 callgsubr
          -420 -240 -19 callgsubr
        </CharString>
        <CharString name="eth">
          43 0 86 199 80 199 -8 callgsubr
          cntrmask 11100000
          -16 callsubr
          -205 -63 -80 63 -205 36 callsubr
          430 -3 callgsubr
          -564 rmoveto
          199 154 80 -154 199 8 callsubr
        </CharString>
        <CharString name="exclam">
          -387 0 120 630 -20 hstem
          80 100 vstem
          80 120 -51 callsubr
          -100 630 rmoveto
          -280 vlineto
          30 -250 rlineto
          40 hlineto
          30 250 rlineto
          280 vlineto
          endchar
        </CharString>
        <CharString name="exclamdown">
          -387 -79 -21 630 120 hstem
          80 100 vstem
          180 530 rmoveto
          120 -100 -120 vlineto
          100 -630 rmoveto
          280 vlineto
          -30 250 rlineto
          -40 hlineto
          -30 -250 rlineto
          -280 vlineto
          endchar
        </CharString>
        <CharString name="f">
          -51 -11 callsubr
          hintmask 11011010
          80 0 callsubr
          hintmask 11010110
          25 callgsubr
          hlineto
          hintmask 11101010
          10 callsubr
          hintmask 11010110
          -80 -92 callgsubr
          hlineto
          hintmask 11011010
          -76 callgsubr
          endchar
        </CharString>
        <CharString name="fi">
          341 -11 callsubr
          190 92 hintmask 11011011
          80 0 callsubr
          hintmask 11010111
          25 callgsubr
          hlineto
          hintmask 11101011
          10 callsubr
          hintmask 11010111
          -80 -92 callgsubr
          hlineto
          hintmask 11011011
          -76 callgsubr
          110 hmoveto
          -61 callgsubr
          endchar
        </CharString>
        <CharString name="five">
          0 86 287 80 101 -22 callgsubr
          hstemhm
          99 83 -63 80 268 72 -72 92 hintmask 11100110
          459 554 rmoveto
          80 196 -420 -377 294 hlineto
          54 -55 rlineto
          -179 -51 callgsubr
          hintmask 11101001
          -97 callgsubr
          237 34 callgsubr
          hintmask 11010110
          -259 217 260 hlineto
          endchar
        </CharString>
        <CharString name="fl">
          505 -84 callsubr
          89 80 89 -56 callgsubr
          120 -41 callsubr
          218 76 hintmask 1010110110100000
          80 0 callsubr
          hintmask 1010101110100000
          25 callgsubr
          hlineto
          hintmask 1011010110100000
          10 callsubr
          hintmask 1010101110100000
          -80 -92 callgsubr
          hlineto
          hintmask 1010110110100000
          -76 callgsubr
          120 hmoveto
          -80 vlineto
          hintmask 1010110101100000
          25 callgsubr
          hlineto
          hintmask 1011010110100000
          -70 -80 456 hlineto
          hintmask 0111010110100000
          196 -76 vlineto
          hintmask 1010110101100000
          -116 -218 490 vlineto
          hintmask 1010110110100000
          80 80 hlineto
          endchar
        </CharString>
        <CharString name="florin">
          -157 -21 512 70 260 86 hstem
          249 92 vstem
          258 -178 rmoveto
          83 188 rlineto
          324 145 70 -145 207 -87 callsubr
          93 hlineto
          23 callgsubr
          -172 hlineto
          -104 -54 callgsubr
          -236 -132 -70 132 -300 vlineto
          -77 -174 rlineto
          endchar
        </CharString>
        <CharString name="four">
          0 80 107 80 483 -20 hstemhm
          310 242 -162 92 hintmask 11110000
          310 80 rmoveto
          48 callsubr
          46 callsubr
          -70 107 63 80 -63 483 -150 hlineto
          -292 -483 rlineto
          -80 350 -107 vlineto
          hintmask 11110000
          -249 187 rmoveto
          hintmask 11101000
          249 412 rlineto
          -412 vlineto
          endchar
        </CharString>
        <CharString name="fraction">
          253 -14 -21 819 -20 hstem
          259 -35 -70 callsubr
        </CharString>
        <CharString name="g">
          -27 0 86 169 80 229 -7 callgsubr
          372 -87 callsubr
          183 -79 callsubr
          -262 hlineto
          -104 -54 callgsubr
          -430 19 callsubr
          225 26 callsubr
          -104 hlineto
          50 callsubr
          endchar
        </CharString>
        <CharString name="germandbls">
          67 0 86 237 80 261 86 hstemhm
          60 162 -92 92 258 86 -18 86 hintmask 11101100
          584 403 rmoveto
          -92 hlineto
          74 77 rlineto
          160 -102 callgsubr
          -228 hlineto
          -104 -54 callgsubr
          -560 vlineto
          hintmask 11110100
          -70 -80 162 611 hlineto
          -57 callgsubr
          149 hlineto
          57 -59 rlineto
          -90 vlineto
          -111 -112 rlineto
          -65 -80 hlineto
          hintmask 11110010
          244 -178 hlineto
          -58 -59 rlineto
          -98 hlineto
          -78 79 -59 -62 97 -103 rlineto
          178 hlineto
          -101 callsubr
          243 vlineto
          endchar
        </CharString>
        <CharString name="grave">
          37 callgsubr
          130 743 rmoveto
          -100 callsubr
        </CharString>
        <CharString name="greater">
          156 -21 480 -34 callsubr
          endchar
        </CharString>
        <CharString name="greaterequal">
          0 80 535 -34 callsubr
          -336 -295 -19 callgsubr
        </CharString>
        <CharString name="guillemotleft">
          -178 -44 callsubr
          88 154 -59 callgsubr
          endchar
        </CharString>
        <CharString name="guillemotright">
          -178 -2 callgsubr
          235 221 -59 callsubr
          -312 -154 -59 callsubr
          endchar
        </CharString>
        <CharString name="guilsinglleft">
          -378 -44 callsubr
          endchar
        </CharString>
        <CharString name="guilsinglright">
          -378 -2 callgsubr
          35 221 -59 callsubr
          endchar
        </CharString>
        <CharString name="h">
          145 0 80 205 80 205 -67 callgsubr
          238 -75 callgsubr
          cntrmask 11100000
          -72 callgsubr
          232 80 hlineto
          hintmask 11101010
          -70 205 308 -205 16 callsubr
          490 -52 callgsubr
          hintmask 11101010
          70 -205 -308 205 41 callgsubr
        </CharString>
        <CharString name="hungarumlaut">
          -45 732 -21 110 -20 hstem
          315 821 20 callgsubr
          185 72 20 callgsubr
          endchar
        </CharString>
        <CharString name="hyphen">
          -138 3 callsubr
          309 80 vlineto
          endchar
        </CharString>
        <CharString name="i">
          -44 callgsubr
        </CharString>
        <CharString name="iacute">
          -53 callsubr
          -43 21 callsubr
          hintmask 10111000
          -97 callsubr
        </CharString>
        <CharString name="icircumflex">
          -14 callsubr
          490 13 callgsubr
          11 callgsubr
          650 rmoveto
          -61 callgsubr
          -175 -98 callgsubr
        </CharString>
        <CharString name="idieresis">
          -14 callsubr
          490 14 callgsubr
          0 callsubr
          hintmask 11101000
          80 -490 12 callsubr
          -80 -26 callsubr
          47 callgsubr
          -80 490 -21 callgsubr
        </CharString>
        <CharString name="igrave">
          -53 callsubr
          -237 93 rmoveto
          hintmask 10111000
          -100 callsubr
        </CharString>
        <CharString name="infinity">
          203 150 82 286 82 hstem
          50 86 578 86 vstem
          503 150 rmoveto
          187 hlineto
          110 104 rlineto
          242 vlineto
          -110 104 rlineto
          -187 hlineto
          -84 -143 -83 143 rlineto
          -176 hlineto
          -110 -104 rlineto
          -242 vlineto
          110 -104 rlineto
          176 hlineto
          83 142 rlineto
          133 -60 rmoveto
          -84 143 84 143 rlineto
          109 hlineto
          53 -51 rlineto
          -183 vlineto
          -53 -52 rlineto
          -374 286 rmoveto
          84 -143 -84 -143 rlineto
          -98 hlineto
          -53 52 rlineto
          182 vlineto
          53 52 rlineto
          endchar
        </CharString>
        <CharString name="integral">
          -265 -186 86 850 86 hstem
          237 697 rmoveto
          -57 callgsubr
          93 86 -133 hlineto
          -104 -54 callgsubr
          -773 -66 callgsubr
          -93 -86 133 hlineto
          -101 callsubr
          endchar
        </CharString>
        <CharString name="j">
          -107 0 86 484 -54 callsubr
          460 18 callgsubr
          -431 hlineto
          -25 callgsubr
          endchar
        </CharString>
        <CharString name="k">
          22 0 80 205 80 205 -12 callgsubr
          -58 vlineto
          -181 252 171 238 9 callsubr
          -148 -205 rlineto
          -88 205 -52 callgsubr
          hintmask 11101100
          25 callgsubr
          17 callsubr
          205 99 hlineto
          147 -205 rlineto
          -51 -80 hlineto
          endchar
        </CharString>
        <CharString name="l">
          -91 -84 callsubr
          374 -28 callgsubr
          218 76 hintmask 10110100
          80 0 callsubr
          hintmask 10101100
          25 callgsubr
          -13 callsubr
          490 43 callgsubr
        </CharString>
        <CharString name="less">
          156 -21 480 -32 callsubr
          endchar
        </CharString>
        <CharString name="lessequal">
          0 80 535 -32 callsubr
          -420 -535 -19 callgsubr
        </CharString>
        <CharString name="logicalnot">
          335 80 hstemhm
          463 72 vstemhm
          115 34 callsubr
          348 vlineto
          hintmask 11000000
          -149 72 229 vlineto
          endchar
        </CharString>
        <CharString name="lozenge">
          60 -165 -21 1022 -20 hstem
          417 836 rmoveto
          -127 hlineto
          -250 -511 250 -511 rlineto
          127 hlineto
          250 511 rlineto
          -535 hmoveto
          221 452 222 -452 -222 -452 rlineto
          endchar
        </CharString>
        <CharString name="lslash">
          -91 -84 callsubr
          374 -57 callsubr
          215 4 callgsubr
          205 18 callsubr
          -235 13 callsubr
          -185 vlineto
          endchar
        </CharString>
        <CharString name="m">
          299 0 80 490 -67 callgsubr
          392 -75 callgsubr
          hintmask 11100100
          429 80 rmoveto
          88 hlineto
          187 457 rlineto
          -457 vlineto
          -42 callgsubr
          hintmask 11100100
          -70 490 31 callsubr
          -473 -189 473 rlineto
          -204 -80 hlineto
          hintmask 11011000
          25 callgsubr
          -18 callgsubr
          457 hlineto
          endchar
        </CharString>
        <CharString name="macron">
          -304 711 89 hstem
          50 243 vstem
          50 711 rmoveto
          243 89 -243 hlineto
          endchar
        </CharString>
        <CharString name="minus">
          335 80 hstem
          115 415 -19 callgsubr
        </CharString>
        <CharString name="mu">
          93 -159 -21 180 86 564 -20 hstem
          130 92 296 92 vstem
          130 -180 rmoveto
          92 180 284 hlineto
          -101 callsubr
          540 -92 -511 -66 callgsubr
          -244 564 -92 hlineto
          endchar
        </CharString>
        <CharString name="multiply">
          190 -21 412 -20 hstem
          475 169 rmoveto
          56 56 -150 150 150 150 -56 56 -150 -150 -150 150 -56 -56 150 -150 -150 -150 56 -56 150 150 rlineto
          endchar
        </CharString>
        <CharString name="n">
          165 0 80 490 -19 callsubr
          570 17 callgsubr
          -472 hlineto
          -292 552 rlineto
          -208 -80 hlineto
          hintmask 11011000
          25 callgsubr
          -18 callgsubr
          471 hlineto
          endchar
        </CharString>
        <CharString name="nine">
          0 86 231 80 267 86 hstem
          100 92 271 87 vstem
          550 640 rmoveto
          -104 110 rlineto
          -242 hlineto
          -104 -54 callgsubr
          -217 vlineto
          101 -106 rlineto
          262 25 callsubr
          -57 -58 rlineto
          -163 hlineto
          -60 62 rlineto
          88 -83 -126 -82 callgsubr
          242 hlineto
          -101 callsubr
          -304 287 rmoveto
          -54 55 rlineto
          159 vlineto
          51 53 rlineto
          163 hlineto
          57 -58 rlineto
          -209 vlineto
          endchar
        </CharString>
        <CharString name="notequal">
          -59 -21 295 80 160 80 295 -20 hstem
          115 295 rmoveto
          -80 118 vlineto
          -99 -295 rlineto
          77 hlineto
          98 295 rlineto
          226 80 -199 hlineto
          54 160 rlineto
          145 80 -118 hlineto
          99 295 16 callgsubr
          -99 -295 rlineto
          -225 -80 198 hlineto
          -53 -160 rlineto
          endchar
        </CharString>
        <CharString name="ntilde">
          165 0 80 490 13 callgsubr
          6 callsubr
          -72 callgsubr
          232 80 hlineto
          hintmask 11101010
          -70 471 hlineto
          292 -551 rlineto
          138 570 -52 callgsubr
          hintmask 11110010
          70 -472 hlineto
          -292 552 rlineto
          189 61 -104 callgsubr
        </CharString>
        <CharString name="numbersign">
          21 -21 200 69 213 69 199 -20 hstem
          324 hmoveto
          77 hlineto
          54 200 rlineto
          100 hlineto
          19 69 rlineto
          -100 hlineto
          58 213 rlineto
          100 hlineto
          19 69 rlineto
          -100 hlineto
          55 199 16 callgsubr
          -55 -199 rlineto
          -203 hlineto
          55 199 16 callgsubr
          -55 -199 42 callsubr
          -58 -213 42 callsubr
          -54 -200 rlineto
          77 hlineto
          54 200 rlineto
          -5 callgsubr
          -126 282 rmoveto
          -5 callgsubr
          -58 -213 rlineto
          -203 hlineto
          endchar
        </CharString>
        <CharString name="o">
          0 86 478 86 -100 callgsubr
          endchar
        </CharString>
        <CharString name="oacute">
          -89 callsubr
          11 740 -40 callgsubr
          hintmask 10111100
          -97 callsubr
        </CharString>
        <CharString name="ocircumflex">
          0 86 478 86 61 105 -100 callgsubr
          -151 730 -106 callgsubr
        </CharString>
        <CharString name="odieresis">
          0 86 478 86 61 101 hstem
          80 92 17 35 callgsubr
          18 -104 callsubr
          -237 625 -73 callgsubr
        </CharString>
        <CharString name="oe">
          288 -84 callsubr
          90 80 88 -38 callgsubr
          206 235 80 -235 204 -4 callgsubr
          -430 43 callsubr
          372 38 callsubr
          -490 hlineto
          endchar
        </CharString>
        <CharString name="ogonek">
          -241 -173 173 -110 -20 hstemhm
          hintmask 10000000
          100 -98 rmoveto
          71 -75 rlineto
          98 hlineto
          71 80 -49 43 rlineto
          hintmask 01000000
          -54 -60 rlineto
          -28 hlineto
          -44 46 rlineto
          hintmask 10000000
          56 64 rlineto
          -88 hlineto
          -33 -38 rlineto
          endchar
        </CharString>
        <CharString name="ograve">
          -89 callsubr
          -213 657 rmoveto
          hintmask 10111100
          -100 callsubr
        </CharString>
        <CharString name="one">
          0 80 670 -20 hstem
          309 92 vstem
          309 750 rmoveto
          -202 -100 39 -78 163 81 rlineto
          -573 -150 -80 392 80 -150 670 vlineto
          endchar
        </CharString>
        <CharString name="onehalf">
          253 -14 -21 35 64 -64 131 167 64 22 68 298 -20 54 -20 hstemhm
          172 72 507 80 -64 64 hintmask 1011111110000000
          546 hmoveto
          285 131 hlineto
          hintmask 1011111101000000
          -64 hlineto
          hintmask 1101111101000000
          -67 -126 vlineto
          181 198 rlineto
          121 -76 callsubr
          hintmask 1101111110000000
          24 -24 rlineto
          -73 vlineto
          -205 -229 rlineto
          -461 304 -60 callsubr
          87 -397 -70 callsubr
        </CharString>
        <CharString name="onequarter">
          27 callsubr
          64 388 -20 54 -20 hstemhm
          172 72 479 71 -50 callsubr
          -638 190 -60 callsubr
          hintmask 10111111
          87 -397 -70 callsubr
        </CharString>
        <CharString name="onesuperior">
          -257 330 64 388 -20 hstem
          173 72 vstem
          86 394 -60 callsubr
          endchar
        </CharString>
        <CharString name="ordfeminine">
          -246 406 64 54 63 213 -20 hstemhm
          10 140 -35 171 -35 140 hintmask 11110100
          251 406 rmoveto
          140 64 -34 hlineto
          -91 266 rlineto
          hintmask 11101000
          20 64 -171 -64 20 hlineto
          -92 -266 rlineto
          hintmask 11110100
          -33 -64 140 64 -34 hlineto
          19 54 rlineto
          131 47 callgsubr
          20 -54 rlineto
          hintmask 11110100
          -35 hlineto
          -50 244 rmoveto
          16 -48 13 -35 15 -44 rrcurveto
          -89 hlineto
          endchar
        </CharString>
        <CharString name="ordmasculine">
          -256 406 68 258 68 hstem
          45 70 161 70 vstem
          110 406 rmoveto
          -26 callgsubr
          256 -71 callgsubr
          -256 vlineto
          95 -1 rmoveto
          -25 24 rlineto
          210 vlineto
          25 24 rlineto
          112 hlineto
          24 -24 rlineto
          -210 vlineto
          -24 -24 rlineto
          endchar
        </CharString>
        <CharString name="oslash">
          -109 -21 130 86 478 86 130 32 callgsubr
          -130 rmoveto
          77 hlineto
          43 130 rlineto
          212 hlineto
          -101 callsubr
          430 vlineto
          -99 105 45 135 16 callgsubr
          -44 -130 rlineto
          -211 hlineto
          -104 -54 callgsubr
          -430 vlineto
          99 -105 rlineto
          -7 506 rmoveto
          -57 callgsubr
          142 hlineto
          -155 -466 -39 41 rlineto
          306 372 rmoveto
          -27 callgsubr
          -143 hlineto
          156 465 rlineto
          endchar
        </CharString>
        <CharString name="otilde">
          0 86 478 86 61 105 -100 callgsubr
          -30 625 -104 callgsubr
        </CharString>
        <CharString name="p">
          -23 0 80 140 86 258 86 -41 callgsubr
          256 86 -72 callgsubr
          242 80 hlineto
          hintmask 11101100
          -80 140 -4 callsubr
          210 -102 callgsubr
          hintmask 11110100
          -40 -344 rmoveto
          hintmask 11101100
          -198 258 -15 callgsubr
          -140 vlineto
          endchar
        </CharString>
        <CharString name="paragraph">
          -33 -64 -21 385 86 278 86 hstem
          40 143 199 92 vstem
          544 750 rmoveto
          -400 hlineto
          -104 -54 callgsubr
          -230 -82 callgsubr
          238 -300 hlineto
          90 -85 61 61 -59 57 rlineto
          637 70 vlineto
          -361 -6 rmoveto
          199 -278 -199 hlineto
          endchar
        </CharString>
        <CharString name="parenleft">
          -9 callgsubr
          88 92 vstem
          192 -100 rmoveto
          130 86 -71 hlineto
          -71 153 rlineto
          472 vlineto
          72 153 rlineto
          70 86 -130 hlineto
          -104 -210 rlineto
          -530 vlineto
          endchar
        </CharString>
        <CharString name="parenright">
          -9 callgsubr
          172 92 vstem
          264 110 rmoveto
          530 vlineto
          -104 210 rlineto
          -130 -86 70 hlineto
          72 -153 rlineto
          -472 vlineto
          -71 -153 rlineto
          -71 -86 130 hlineto
          endchar
        </CharString>
        <CharString name="partialdiff">
          0 86 321 86 345 -20 hstem
          331 683 rmoveto
          -70 vlineto
          119 38 20 -69 -9 -89 rlineto
          -283 hlineto
          -104 -110 -22 -273 -90 callsubr
          260 hlineto
          104 110 45 476 -29 93 104 34 rlineto
          70 vlineto
          -124 -40 -29 95 -82 -25 27 -97 rlineto
          -56 -630 rmoveto
          -181 hlineto
          -51 53 22 215 -57 callgsubr
          235 hlineto
          -25 -268 rlineto
          endchar
        </CharString>
        <CharString name="percent">
          293 -31 callsubr
          vstem
          634 hmoveto
          -106 callsubr
          -641 230 rmoveto
          -106 callsubr
          2 -401 -70 callsubr
        </CharString>
        <CharString name="period">
          -447 0 22 callgsubr
          120 -58 callsubr
        </CharString>
        <CharString name="periodcentered">
          -447 315 22 callgsubr
          435 -58 callsubr
        </CharString>
        <CharString name="perthousand">
          665 -31 callsubr
          71 24 callgsubr
          vstem
          1006 hmoveto
          -106 callsubr
          -1013 230 rmoveto
          -106 callsubr
          357 -366 rmoveto
          -106 callsubr
          -497 -103 -70 callsubr
        </CharString>
        <CharString name="pi">
          115 -14 -21 35 -20 590 80 hstemhm
          160 92 258 92 hintmask 01111000
          -47 callgsubr
          80 -570 92 570 258 -520 vlineto
          hintmask 10111000
          90 -85 61 61 -59 57 rlineto
          487 80 80 vlineto
          endchar
        </CharString>
        <CharString name="plus">
          186 -21 170 -45 callsubr
          endchar
        </CharString>
        <CharString name="plusminus">
          0 80 255 -45 callsubr
          -170 -255 -19 callgsubr
        </CharString>
        <CharString name="product">
          115 -79 -21 770 80 hstem
          160 92 258 92 vstem
          160 -100 rmoveto
          92 770 258 -770 92 770 80 80 -602 -80 80 hlineto
          endchar
        </CharString>
        <CharString name="q">
          -79 -21 100 86 478 24 callsubr
          115 75 116 92 vstem
          -5 callsubr
          103 -100 75 100 104 hlineto
          -101 callsubr
          430 -103 callsubr
          -430 -67 callsubr
          -40 callsubr
          372 -98 callsubr
          -27 callgsubr
          -64 120 -75 -120 hlineto
          endchar
        </CharString>
        <CharString name="question">
          -128 0 120 544 86 hstem
          60 83 46 100 78 92 vstem
          248 214 rmoveto
          211 230 42 callgsubr
          -191 hlineto
          -104 -54 callgsubr
          -126 83 88 vlineto
          60 62 rlineto
          112 hlineto
          52 -53 rlineto
          -138 vlineto
          -179 -199 rlineto
          1 -154 -58 callsubr
        </CharString>
        <CharString name="questiondown">
          -128 -100 86 544 120 hstem
          60 92 78 100 46 83 vstem
          271 436 rmoveto
          -211 -230 rlineto
          -196 -82 callgsubr
          191 21 callgsubr
          -83 -88 vlineto
          -60 -62 rlineto
          -112 hlineto
          -52 53 rlineto
          138 vlineto
          179 199 rlineto
          -1 154 rmoveto
          120 -100 -120 vlineto
          endchar
        </CharString>
        <CharString name="quotedbl">
          -18 callsubr
          70 800 rmoveto
          -30 callsubr
          60 hmoveto
          -30 callsubr
          endchar
        </CharString>
        <CharString name="quotedblbase">
          -287 -130 250 hstem
          50 100 60 100 vstem
          210 -48 callsubr
          -260 hmoveto
          -80 callsubr
          endchar
        </CharString>
        <CharString name="quotedblleft">
          -18 callsubr
          170 550 rmoveto
          -7 callsubr
          260 hmoveto
          -7 callsubr
          endchar
        </CharString>
        <CharString name="quotedblright">
          -18 callsubr
          230 800 -35 callgsubr
          -260 hmoveto
          -80 callsubr
          endchar
        </CharString>
        <CharString name="quoteleft">
          -17 callgsubr
          170 550 rmoveto
          -7 callsubr
          endchar
        </CharString>
        <CharString name="quoteright">
          -17 callgsubr
          70 800 -35 callgsubr
          endchar
        </CharString>
        <CharString name="quotesinglbase">
          -33 callgsubr
        </CharString>
        <CharString name="quotesingle">
          -17 callgsubr
          70 800 rmoveto
          -30 callsubr
          endchar
        </CharString>
        <CharString name="r">
          52 0 80 150 86 248 86 hstemhm
          80 -61 callsubr
          209 178 -131 86 -72 callgsubr
          222 80 hlineto
          hintmask 11101100
          -60 150 147 hlineto
          90 -150 rlineto
          -28 -80 178 80 -53 hlineto
          -93 154 rlineto
          hintmask 11110010
          101 106 rlineto
          200 -102 callgsubr
          -40 -334 rmoveto
          hintmask 11101010
          -198 248 -15 callgsubr
          -130 vlineto
          endchar
        </CharString>
        <CharString name="radical">
          -25 -79 -21 880 70 hstem
          120 311 rmoveto
          -80 -29 140 -382 rlineto
          139 hlineto
          213 880 rlineto
          140 70 -213 hlineto
          -214 -882 rlineto
          endchar
        </CharString>
        <CharString name="registered">
          53 261 50 156 68 105 68 43 50 hstem
          100 50 71 70 122 76 61 50 vstem
          7 callgsubr
          -88 93 rlineto
          -324 hlineto
          -38 callsubr
          12 397 rmoveto
          -354 70 113 81 vlineto
          41 -59 rlineto
          -54 79 64 vlineto
          -48 69 45 49 rlineto
          103 vlineto
          -64 69 rlineto
          -30 -173 rmoveto
          -104 105 105 hlineto
          27 -28 rlineto
          -49 vlineto
          endchar
        </CharString>
        <CharString name="ring">
          -390 701 41 70 41 hstem
          50 44 69 44 vstem
          85 701 -74 callsubr
        </CharString>
        <CharString name="s">
          -47 0 86 191 27 callgsubr
          92 hintmask 11110100
          -62 callsubr
          hintmask 11101100
          -58 callgsubr
          endchar
        </CharString>
        <CharString name="scaron">
          -47 0 86 191 86 201 86 61 105 -17 callsubr
          92 hintmask 11111010
          -62 callsubr
          hintmask 11110110
          -58 callgsubr
          -41 434 -93 callgsubr
        </CharString>
        <CharString name="section">
          -47 -100 86 191 86 114 27 callgsubr
          82 hintmask 11110110
          510 260 rmoveto
          97 34 callgsubr
          -188 hlineto
          -87 callgsubr
          54 -57 -34 -37 rlineto
          -106 vlineto
          102 -107 rlineto
          188 hlineto
          48 -49 rlineto
          -89 -51 callgsubr
          hintmask 11111010
          -97 callgsubr
          147 vlineto
          -59 61 rlineto
          -101 159 rmoveto
          48 -49 rlineto
          -39 vlineto
          -26 -26 rlineto
          -151 hlineto
          -49 50 rlineto
          48 vlineto
          15 16 rlineto
          endchar
        </CharString>
        <CharString name="semicolon">
          -447 -109 -21 530 120 -46 callgsubr
          -100 400 -58 callsubr
        </CharString>
        <CharString name="seven">
          36 callgsubr
          90 80 hintmask 10110000
          159 80 rmoveto
          -26 callsubr
          -82 vlineto
          227 590 12 callgsubr
          hintmask 11010000
          -196 80 vlineto
          hintmask 10110000
          116 291 vlineto
          -227 -590 rlineto
          endchar
        </CharString>
        <CharString name="six">
          0 86 267 80 231 86 hstemhm
          100 87 281 72 -72 92 hintmask 11110100
          100 221 rmoveto
          -111 -90 callgsubr
          217 34 callgsubr
          -272 173 hlineto
          57 58 rlineto
          153 hlineto
          60 -62 rlineto
          -88 vlineto
          hintmask 11111000
          83 126 hlineto
          -104 110 rlineto
          -232 hlineto
          -104 -54 callgsubr
          314 -287 rmoveto
          54 -55 rlineto
          -159 -51 callgsubr
          -57 58 rlineto
          209 vlineto
          endchar
        </CharString>
        <CharString name="slash">
          -255 10 callgsubr
          5 -80 rmoveto
          77 hlineto
          305 910 16 callgsubr
          endchar
        </CharString>
        <CharString name="space">
          -297 endchar
        </CharString>
        <CharString name="sterling">
          -84 callsubr
          138 70 260 86 hstemhm
          159 92 -24 callsubr
          hintmask 10111100
          97 404 rmoveto
          -70 62 -142 vlineto
          -50 -112 rlineto
          -30 -80 486 hlineto
          hintmask 01111100
          -65 callsubr
          vlineto
          hintmask 10111100
          -116 -282 vlineto
          48 108 rlineto
          146 215 70 -215 207 -87 callsubr
          133 hlineto
          23 callgsubr
          -212 hlineto
          -104 -54 callgsubr
          -236 vlineto
          endchar
        </CharString>
        <CharString name="summation">
          -25 -100 80 690 80 hstem
          90 -20 rmoveto
          -80 502 80 -398 vlineto
          220 344 -220 346 rlineto
          398 80 -502 -80 hlineto
          220 -346 rlineto
          endchar
        </CharString>
        <CharString name="t">
          -67 0 80 374 -22 callgsubr
          hstemhm
          30 76 138 92 138 31 callgsubr
          490 138 39 callgsubr
          -520 40 callgsubr
          138 -490 -100 -80 vlineto
          endchar
        </CharString>
        <CharString name="thorn">
          -23 0 80 44 86 238 86 36 80 hstemhm
          80 162 -92 92 256 86 hintmask 11111010
          80 0 callsubr
          hintmask 11110110
          25 callgsubr
          hlineto
          hintmask 11111010
          -70 -80 162 124 -4 callsubr
          190 -102 callgsubr
          -238 116 hlineto
          198 -440 rmoveto
          -198 238 -15 callgsubr
          -120 vlineto
          endchar
        </CharString>
        <CharString name="three">
          0 86 247 80 251 86 hstemhm
          89 83 266 92 -73 92 hintmask 11110100
          232 333 rmoveto
          171 hlineto
          54 -55 rlineto
          -139 -96 callgsubr
          197 vlineto
          -70 73 rlineto
          hintmask 11111000
          51 53 rlineto
          207 -30 callgsubr
          -149 vlineto
          -48 -49 rlineto
          -158 hlineto
          endchar
        </CharString>
        <CharString name="threequarters">
          27 callsubr
          68 125 64 127 68 34 -20 hstemhm
          56 64 -50 callsubr
          -585 319 -91 callgsubr
          hintmask 10111111
          141 -590 -70 callsubr
        </CharString>
        <CharString name="threesuperior">
          -257 -95 -21 136 -21 179 113 hstem
          129 523 -91 callgsubr
          endchar
        </CharString>
        <CharString name="tilde">
          -259 711 105 hstem
          265 711 -104 callgsubr
        </CharString>
        <CharString name="trademark">
          276 388 64 284 64 hstemhm
          30 61 10 187 -129 71 68 62 40 142 -101 70 220 142 -112 72 hintmask 1111011010000000
          731 452 rmoveto
          -64 142 64 vlineto
          hintmask 1111011001000000
          -40 284 hlineto
          hintmask 1111011010000000
          40 64 -124 hlineto
          -113 -255 -114 255 rlineto
          -122 -64 hlineto
          hintmask 1111010110000000
          41 -284 hlineto
          hintmask 1111011010000000
          -41 -64 142 64 hlineto
          hintmask 1111010101000000
          -31 218 hlineto
          93 -216 rlineto
          65 hlineto
          92 216 rlineto
          -218 vlineto
          hintmask 1111011010000000
          -473 -64 rmoveto
          64 vlineto
          46 callgsubr
          -58 284 68 -68 62 132 -330 -132 61 68 68 -284 hlineto
          hintmask 1111011010000000
          -58 -64 hlineto
          endchar
        </CharString>
        <CharString name="two">
          -84 callsubr
          468 86 hstemhm
          90 83 265 92 -65 80 hintmask 01110100
          545 hmoveto
          -65 callsubr
          vlineto
          hintmask 10110100
          -116 -268 vlineto
          hintmask 01111000
          333 364 rlineto
          196 -30 callgsubr
          -138 vlineto
          -353 -393 rlineto
          -80 vlineto
          endchar
        </CharString>
        <CharString name="twosuperior">
          -257 -107 110 288 -20 hstem
          43 330 rmoveto
          285 131 -64 -67 -126 hlineto
          181 198 rlineto
          121 -76 callsubr
          24 -24 rlineto
          -73 vlineto
          -205 -229 rlineto
          endchar
        </CharString>
        <CharString name="u">
          93 0 86 484 80 -72 callsubr
          hintmask 11101000
          448 0 callsubr
          hintmask 11010100
          -81 callgsubr
          hintmask 11101000
          -55 callsubr
          hintmask 11010100
          -88 callsubr
          hintmask 11101000
          29 callsubr
          endchar
        </CharString>
        <CharString name="uacute">
          93 0 86 484 80 176 -20 -72 callsubr
          hintmask 11110100
          448 0 callsubr
          hintmask 11101010
          -81 callgsubr
          hintmask 11110100
          -55 callsubr
          hintmask 11101010
          -88 callsubr
          hintmask 11110100
          29 callsubr
          -188 176 rmoveto
          -194 -77 -97 callsubr
        </CharString>
        <CharString name="ucircumflex">
          93 0 86 484 13 callgsubr
          -72 callsubr
          hintmask 11110100
          448 0 callsubr
          hintmask 11101010
          -81 callgsubr
          hintmask 11110100
          -55 callsubr
          hintmask 11101010
          -88 callsubr
          hintmask 11110100
          29 callsubr
          -350 -98 callgsubr
        </CharString>
        <CharString name="udieresis">
          93 0 86 484 -24 callgsubr
          0 callsubr
          46 callgsubr
          -81 callgsubr
          hintmask 1111001010000000
          -55 callsubr
          46 callgsubr
          -88 callsubr
          hintmask 1111000100000000
          29 callsubr
          46 callgsubr
          -257 61 -86 callgsubr
        </CharString>
        <CharString name="ugrave">
          93 0 86 484 -69 callsubr
          0 callsubr
          hintmask 11010101
          -81 callgsubr
          hintmask 11011010
          -55 callsubr
          hintmask 11010101
          -88 callsubr
          hintmask 11011010
          29 callsubr
          -412 93 rmoveto
          hintmask 10111010
          -100 callsubr
        </CharString>
        <CharString name="underscore">
          -26 -80 80 hstem
          50 hmoveto
          -80 521 80 vlineto
          endchar
        </CharString>
        <CharString name="v">
          40 21 -21 570 2 callsubr
          205 570 rlineto
          55 -77 callgsubr
          65 hlineto
          -177 -491 -176 491 rlineto
          65 -77 callgsubr
          55 hlineto
          endchar
        </CharString>
        <CharString name="w">
          379 21 -21 570 -22 callsubr
          503 150 -503 rlineto
          123 hlineto
          170 570 rlineto
          50 -77 callgsubr
          70 32 callsubr
          40 80 -216 -80 40 32 callsubr
          70 -77 callgsubr
          50 hlineto
          endchar
        </CharString>
        <CharString name="x">
          2 0 80 490 6 callgsubr
          -51 vlineto
          132 183 134 -183 rlineto
          -50 -66 callsubr
          -59 hlineto
          -178 243 179 247 9 callsubr
          -128 -177 -129 177 rlineto
          51 -77 callgsubr
          58 hlineto
          174 -237 -184 -253 rlineto
          -58 -80 hlineto
          endchar
        </CharString>
        <CharString name="y">
          -40 0 80 490 80 hstem
          -9 callsubr
          vstem
          -95 callsubr
          -90 -80 vlineto
          endchar
        </CharString>
        <CharString name="yacute">
          -40 0 80 490 -1 callgsubr
          -9 callsubr
          hintmask 11011110
          -95 callsubr
          -90 -80 vlineto
          238 826 -40 callgsubr
          hintmask 10111110
          -97 callsubr
        </CharString>
        <CharString name="ydieresis">
          -40 0 80 490 80 61 101 hstemhm
          20 212 -64 92 -2 92 -3 92 -64 212 hintmask 11110101
          -95 callsubr
          vlineto
          hintmask 11101010
          -90 -80 hlineto
          711 5 callgsubr
        </CharString>
        <CharString name="yen">
          0 80 144 70 110 70 196 80 hstem
          42 -2 callsubr
          vstem
          462 hmoveto
          80 -90 144 207 70 -184 vlineto
          45 110 rlineto
          139 70 -110 hlineto
          81 196 rlineto
          59 -77 callgsubr
          65 hlineto
          -137 -332 -136 332 rlineto
          65 -77 callgsubr
          59 hlineto
          80 -196 rlineto
          -109 -70 138 hlineto
          45 -54 callgsubr
          -183 -70 208 -144 -90 -80 hlineto
          endchar
        </CharString>
        <CharString name="z">
          -51 -84 callsubr
          258 -36 callsubr
          -302 vlineto
          382 490 -12 callsubr
        </CharString>
        <CharString name="zcaron">
          -51 -84 callsubr
          258 -39 callgsubr
          -302 vlineto
          382 490 -65 callgsubr
        </CharString>
        <CharString name="zero">
          0 86 229 120 229 51 callsubr
          87 108 100 108 87 cntrmask 11111100
          -5 callsubr
          282 -105 callgsubr
          -56 58 rlineto
          462 vlineto
          57 58 rlineto
          -5 callgsubr
          56 -58 rlineto
          -462 vlineto
          -57 -58 rlineto
          -151 349 -58 callsubr
        </CharString>
      <CharString index="0">
        -5 callsubr
        282 -105 callgsubr
        -51 53 rlineto
        472 -98 callsubr
        -28 callsubr
        return
      </CharString>
      <CharString index="1">
        rmoveto
        -89 -77 13 -28 26 callgsubr
        43 49 44 -49 26 callgsubr
        13 28 -89 77 rlineto
        endchar
      </CharString>
      <CharString index="2">
        hlineto
        -101 callsubr
        530 -103 callsubr
        -530 -67 callsubr
        return
      </CharString>
      <CharString index="3">
        rmoveto
        78 77 -13 28 rlineto
        -72 hlineto
        -32 -28 -57 28 rlineto
        -26 hlineto
        -78 -77 13 -28 rlineto
        72 hlineto
        32 28 57 -28 rlineto
        endchar
      </CharString>
      <CharString index="4">
        92 vstem
        -107 callgsubr
        return
      </CharString>
      <CharString index="5">
        vlineto
        -104 110 rlineto
        return
      </CharString>
      <CharString index="6">
        -91 callsubr
        46 154 rlineto
        251 hlineto
        46 -154 rlineto
        -70 return
      </CharString>
      <CharString index="7">
        hstem
        80 92 306 -104 callsubr
        return
      </CharString>
      <CharString index="8">
        430 hmoveto
        28 callgsubr
        80 -99 callsubr
        hlineto
        -102 487 -56 callsubr
        return
      </CharString>
      <CharString index="9">
        166 -106 callgsubr
      </CharString>
      <CharString index="10">
        -61 62 rlineto
        88 -83 -126 -90 callgsubr
        return
      </CharString>
      <CharString index="11">
        -51 callgsubr
        -97 callgsubr
        return
      </CharString>
      <CharString index="12">
        93 0 86 584 -69 callsubr
        0 callgsubr
        hintmask 11010101
        -82 callsubr
        hintmask 11011010
        -55 callsubr
        hintmask 11010101
        -88 callgsubr
        hintmask 11011010
        29 callsubr
        return
      </CharString>
      <CharString index="13">
        440 hmoveto
        80 -90 157 vlineto
        186 433 rlineto
        51 -77 callgsubr
        73 hlineto
        -145 -337 -145 337 rlineto
        74 -77 callgsubr
        50 hlineto
        188 -436 rlineto
        -154 return
      </CharString>
      <CharString index="14">
        rmoveto
        89 77 -13 28 rlineto
        -82 hlineto
        -44 -49 -43 49 rlineto
        -82 hlineto
        -13 -28 89 -77 rlineto
        endchar
      </CharString>
      <CharString index="15">
        -6 callsubr
        80 -45 callgsubr
        return
      </CharString>
      <CharString index="16">
        rmoveto
        104 hlineto
        9 -10 8 -6 9 -10 rrcurveto
        -75 vlineto
        -23 -24 rlineto
        -95 hlineto
        -30 29 rlineto
        57 -65 -85 -6 callgsubr
        121 vlineto
        -37 39 26 27 rlineto
        127 -76 callsubr
        24 -24 rlineto
        -81 vlineto
        -22 -22 rlineto
        -97 hlineto
        return
      </CharString>
      <CharString index="17">
        -82 callgsubr
        252 hlineto
        -101 callsubr
        return
      </CharString>
      <CharString index="18">
        rmoveto
        92 101 -92 hlineto
        return
      </CharString>
      <CharString index="19">
        60 -560 -96 callsubr
        560 vlineto
        return
      </CharString>
      <CharString index="20">
        -49 50 rlineto
        98 -87 callsubr
        153 hlineto
        60 -62 rlineto
        -88 83 126 -84 callgsubr
        -156 vlineto
        return
      </CharString>
      <CharString index="21">
        -89 callgsubr
        -179 -86 callsubr
      </CharString>
      <CharString index="22">
        -81 callsubr
        -76 callgsubr
        return
      </CharString>
      <CharString index="23">
        -102 callgsubr
        -232 hlineto
        -104 -54 callgsubr
        return
      </CharString>
      <CharString index="24">
        -11 0 80 205 80 205 -68 callsubr
        650 rmoveto
        -80 25 callgsubr
        -70 -80 476 -65 callsubr
        -85 callsubr
        return
      </CharString>
      <CharString index="25">
        vlineto
        -90 callsubr
        return
      </CharString>
      <CharString index="26">
        70 -431 -92 callsubr
        431 vlineto
        return
      </CharString>
      <CharString index="27">
        -116 -234 -92 callgsubr
        vlineto
        return
      </CharString>
      <CharString index="28">
        195 -77 callsubr
        46 vlineto
        -49 callgsubr
        80 hlineto
        -134 -95 -55 callgsubr
        return
      </CharString>
      <CharString index="29">
        212 80 -50 52 callgsubr
        50 callgsubr
        46 return
      </CharString>
      <CharString index="30">
        80 -212 -80 return
      </CharString>
      <CharString index="31">
        -75 callsubr
        vlineto
        return
      </CharString>
      <CharString index="32">
        232 -162 92 return
      </CharString>
      <CharString index="33">
        650 rmoveto
        -80 return
      </CharString>
      <CharString index="34">
        rmoveto
        8 callgsubr
      </CharString>
      <CharString index="35">
        hintmask 11110100
        80 0 callsubr
        hintmask 11101100
        25 callgsubr
        12 callsubr
        -70 -80 return
      </CharString>
      <CharString index="36">
        vlineto
        -64 69 rlineto
        -172 hlineto
        -65 -69 rlineto
        return
      </CharString>
      <CharString index="37">
        -40 callgsubr
        hintmask 11011110
        -97 callsubr
      </CharString>
      <CharString index="38">
        hstemhm
        80 -75 callgsubr
        return
      </CharString>
      <CharString index="39">
        rmoveto
        hintmask 11011110
        -100 callsubr
      </CharString>
      <CharString index="40">
        80 -69 callgsubr
        return
      </CharString>
      <CharString index="41">
        vlineto
        -25 callgsubr
        return
      </CharString>
      <CharString index="42">
        12 callgsubr
        hintmask 10101110
        -196 80 vlineto
        hintmask 10011110
        116 283 vlineto
        -91 141 -93 callgsubr
      </CharString>
      <CharString index="43">
        438 288 rmoveto
        -149 -96 callgsubr
        207 34 callgsubr
        -208 hlineto
        return
      </CharString>
      <CharString index="44">
        -1 callgsubr
        -25 callsubr
        return
      </CharString>
      <CharString index="45">
        -8 callsubr
        260 -10 callgsubr
        76 14 callsubr
        25 callsubr
        -40 callsubr
        return
      </CharString>
      <CharString index="46">
        -80 80 -490 -80 -52 callsubr
        vlineto
        return
      </CharString>
      <CharString index="47">
        -49 50 rlineto
        138 -87 callsubr
        153 hlineto
        60 -62 rlineto
        -88 83 126 -84 callgsubr
        -196 vlineto
        102 -107 47 callsubr
        return
      </CharString>
      <CharString index="48">
        rmoveto
        112 154 -69 53 -130 -174 rlineto
        -66 vlineto
        130 -174 69 53 rlineto
        return
      </CharString>
      <CharString index="49">
        -87 callgsubr
        102 -107 47 callsubr
        return
      </CharString>
      <CharString index="50">
        52 53 rlineto
        return
      </CharString>
      <CharString index="51">
        196 -80 -28 callgsubr
        -24 callsubr
        return
      </CharString>
      <CharString index="52">
        rmoveto
        102 -341 rlineto
        -203 hlineto
        return
      </CharString>
      <CharString index="53">
        -110 rlineto
        return
      </CharString>
      <CharString index="54">
        -255 0 80 590 -63 callgsubr
        hintmask 11011000
        -48 callgsubr
        return
      </CharString>
      <CharString index="55">
        12 callsubr
        -37 callsubr
        return
      </CharString>
      <CharString index="56">
        vlineto
        -51 -53 rlineto
        25 callsubr
        return
      </CharString>
      <CharString index="57">
        -22 callgsubr
        49 callgsubr
        234 92 -24 callsubr
        hintmask 10110111
        391 30 callsubr
        476 vlineto
        hintmask 01110111
        -65 callsubr
        vlineto
        hintmask 10101111
        -116 -234 return
      </CharString>
      <CharString index="58">
        -101 callgsubr
        -80 -78 callgsubr
        return
      </CharString>
      <CharString index="59">
        44 callsubr
        80 -590 -80 -35 callsubr
        590 80 80 vlineto
        return
      </CharString>
      <CharString index="60">
        80 -74 callgsubr
        return
      </CharString>
      <CharString index="61">
        -1 callsubr
        -48 callsubr
        return
      </CharString>
      <CharString index="62">
        -234 -6 callsubr
        return
      </CharString>
      <CharString index="63">
        -14 callsubr
        490 80 11 callgsubr
        80 rmoveto
        -52 callsubr
        -252 -80 80 -490 vlineto
        endchar
      </CharString>
      <CharString index="64">
        13 callgsubr
        -37 callgsubr
        return
      </CharString>
      <CharString index="65">
        hintmask 11101000
        -16 callgsubr
        return
      </CharString>
      <CharString index="66">
        hstemhm
        80 -41 callsubr
        return
      </CharString>
      <CharString index="67">
        rmoveto
        -194 -77 rlineto
        return
      </CharString>
      <CharString index="68">
        22 callsubr
        75 80 306 80 hintmask 10101110
        55 30 callsubr
        486 vlineto
        hintmask 01101110
        -65 callsubr
        vlineto
        hintmask 10011110
        -116 return
      </CharString>
      <CharString index="69">
        -22 callgsubr
        hstemhm
        80 92 276 92 235 80 hintmask 01110111
        -5 callsubr
        671 -65 callsubr
        hlineto
        hintmask 10101111
        -116 -235 return
      </CharString>
      <CharString index="70">
        hstem
        -63 callsubr
        vstem
        return
      </CharString>
      <CharString index="71">
        80 0 callgsubr
        return
      </CharString>
      <CharString index="72">
        rmoveto
        -80 callsubr
        return
      </CharString>
      <CharString index="73">
        80 -77 callsubr
        return
      </CharString>
      <CharString index="74">
        -447 -109 -21 250 -20 -46 callgsubr
        endchar
      </CharString>
      <CharString index="75">
        255 234 return
      </CharString>
      <CharString index="76">
        126 -102 callgsubr
        return
      </CharString>
      <CharString index="77">
        -84 callgsubr
        -126 83 88 vlineto
        60 62 rlineto
        153 hlineto
        52 -53 rlineto
        return
      </CharString>
      <CharString index="78">
        -16 callsubr
        -490 -70 -80 return
      </CharString>
      <CharString index="79">
        80 -41 callgsubr
        return
      </CharString>
      <CharString index="80">
        -372 -66 callgsubr
        return
      </CharString>
      <CharString index="81">
        172 hlineto
        64 69 rlineto
        return
      </CharString>
      <CharString index="82">
        -52 -53 rlineto
        return
      </CharString>
      <CharString index="83">
        80 61 101 -42 callsubr
        12 35 callgsubr
        -57 -61 callsubr
        hintmask 1111000100000000
        448 return
      </CharString>
      <CharString index="84">
        -20 callgsubr
        0 61 115 -20 hstemhm
        -63 callsubr
        hintmask 11101110
        return
      </CharString>
      <CharString index="85">
        -65 callsubr
        80 return
      </CharString>
      <CharString index="86">
        12 callsubr
        80 80 hlineto
        -82 61 -86 callgsubr
      </CharString>
      <CharString index="87">
        5 callsubr
        124 80 286 80 return
      </CharString>
      <CharString index="88">
        -14 callgsubr
        endchar
      </CharString>
      <CharString index="89">
        hlineto
        -42 callgsubr
        hintmask 11011000
        -70 return
      </CharString>
      <CharString index="90">
        -407 571 45 callgsubr
        70 100 vstem
        return
      </CharString>
      <CharString index="91">
        -70 -80 232 80 hlineto
        return
      </CharString>
      <CharString index="92">
        199 hlineto
        57 -59 rlineto
        return
      </CharString>
      <CharString index="93">
        rmoveto
        38 callgsubr
        80 vlineto
        return
      </CharString>
      <CharString index="94">
        100 200 -20 hstem
        230 100 vstem
        50 500 rmoveto
        9 callgsubr
        return
      </CharString>
      <CharString index="95">
        -67 callgsubr
        185 222 cntrmask 11100000
        hintmask 11101100
        649 hmoveto
        80 return
      </CharString>
      <CharString index="96">
        10 0 80 124 80 286 -43 callgsubr
        return
      </CharString>
      <CharString index="97">
        hmoveto
        -20 -150 rlineto
        50 hlineto
        70 150 rlineto
        return
      </CharString>
      <CharString index="98">
        -295 -100 86 778 86 hstem
        return
      </CharString>
      <CharString index="99">
        86 hstem
        -25 callsubr
        276 92 return
      </CharString>
      <CharString index="100">
        86 hstemhm
        80 92 160 218 -80 80 hintmask 11110100
        223 86 rmoveto
        -40 callsubr
        return
      </CharString>
      <CharString index="101">
        vlineto
        65 -69 rlineto
        154 hlineto
        65 69 rlineto
        return
      </CharString>
      <CharString index="102">
        203 hlineto
        return
      </CharString>
      <CharString index="103">
        235 -10 callsubr
        -671 vlineto
        -104 -54 callgsubr
        return
      </CharString>
      <CharString index="104">
        -102 callgsubr
        -264 return
      </CharString>
      <CharString index="105">
        189 -21 414 -20 hstem
        return
      </CharString>
      <CharString index="106">
        80 -94 callsubr
        return
      </CharString>
      <CharString index="107">
        -77 callsubr
        vlineto
        return
      </CharString>
      <CharString index="108">
        15 212 return
      </CharString>
      <CharString index="109">
        80 61 101 49 callgsubr
        -34 35 callgsubr
        -34 212 hintmask 11111001
        return
      </CharString>
      <CharString index="110">
        -100 vlineto
        25 -124 -105 24 rlineto
        -100 return
      </CharString>
      <CharString index="111">
        vlineto
        hintmask 10100011
        135 44 rlineto
        70 vlineto
        hintmask 10110001
        -135 -44 rlineto
        return
      </CharString>
      <CharString index="112">
        vmoveto
        8 callgsubr
      </CharString>
      <CharString index="113">
        80 hstem
        40 202 165 212 vstem
        242 hmoveto
        80 return
      </CharString>
      <CharString index="114">
        188 261 rmoveto
        324 hlineto
        88 92 rlineto
        355 vlineto
        return
      </CharString>
      <CharString index="115">
        92 101 -92 hlineto
        179 -86 callsubr
      </CharString>
      <CharString index="116">
        100 hlineto
        105 24 -25 -124 rlineto
        return
      </CharString>
      <CharString index="117">
        -59 -21 910 -20 hstem
        return
      </CharString>
      <CharString index="118">
        hstem
        -25 callsubr
        vstem
        70 return
      </CharString>
      <CharString index="119">
        rlineto
        80 -466 vlineto
        return
      </CharString>
      <CharString index="120">
        80 61 105 return
      </CharString>
      <CharString index="121">
        80 61 101 hstemhm
        70 83 -3 92 -2 82 hintmask 11110100
        70 return
      </CharString>
      <CharString index="122">
        19 callgsubr
        vlineto
        return
      </CharString>
      <CharString index="123">
        rlineto
        -77 hlineto
        return
      </CharString>
      <CharString index="124">
        47 callgsubr
        -37 callsubr
        hintmask 11100100
        70 return
      </CharString>
      <CharString index="125">
        vlineto
        hintmask 11110000
        60 -47 callsubr
        hintmask 11101000
        70 return
      </CharString>
      <CharString index="126">
        -29 callsubr
        476 return
      </CharString>
      <CharString index="127">
        rmoveto
        -155 -72 13 -38 rlineto
        102 hlineto
        76 38 rlineto
        return
      </CharString>
      <CharString index="128">
        hlineto
        -101 callsubr
        126 return
      </CharString>
      <CharString index="129">
        120 -1 callsubr
        return
      </CharString>
      <CharString index="130">
        60 -61 61 61 -82 86 rlineto
        return
      </CharString>
      <CharString index="131">
        68 166 67 return
      </CharString>
      <CharString index="132">
        70 -490 return
      </CharString>
      <CharString index="133">
        rlineto
        82 hlineto
        return
      </CharString>
      <CharString index="134">
        86 201 86 -17 callsubr
        return
      </CharString>
      <CharString index="135">
        212 80 -54 52 callsubr
        51 callgsubr
        43 return
      </CharString>
      <CharString index="136">
        80 hstem
        20 212 return
      </CharString>
      <CharString index="137">
        rlineto
        272 return
      </CharString>
      <CharString index="138">
        76 cntrmask 00011100
        hintmask 10111100
        436 hmoveto
        80 -100 return
      </CharString>
      <CharString index="139">
        -20 hstem
        80 92 306 92 vstem
        134 return
      </CharString>
      <CharString index="140">
        rmoveto
        48 -49 rlineto
        -149 vlineto
        -51 -53 rlineto
        return
      </CharString>
      <CharString index="141">
        vlineto
        -101 106 rlineto
        return
      </CharString>
      <CharString index="142">
        92 87 92 return
      </CharString>
      <CharString index="143">
        0 80 474 -22 callgsubr
        hstemhm
        return
      </CharString>
      <CharString index="144">
        -224 732 -21 115 -20 hstem
        return
      </CharString>
      <CharString index="145">
        -80 420 return
      </CharString>
      <CharString index="146">
        vlineto
        hintmask 11011100
        -116 76 196 return
      </CharString>
      <CharString index="147">
        -196 76 vlineto
        hintmask 10111100
        116 return
      </CharString>
      <CharString index="148">
        12 callsubr
        70 80 hlineto
        endchar
      </CharString>
      <CharString index="149">
        rlineto
        196 -102 callgsubr
        return
      </CharString>
      <CharString index="150">
        vlineto
        hintmask 10110100
        80 80 hlineto
        endchar
      </CharString>
      <CharString index="151">
        -295 -79 -21 950 -20 hstemhm
        return
      </CharString>
      <CharString index="152">
        -21 250 -20 hstem
        return
      </CharString>
      <CharString index="153">
        hintmask 1110111010000000
        return
      </CharString>
      <CharString index="154">
        hlineto
        hintmask 11101000
        return
      </CharString>
      <CharString index="155">
        rlineto
        -143 hlineto
        return
      </CharString>
      <CharString index="156">
        hstemhm
        1 callgsubr
        return
      </CharString>
      <CharString index="157">
        590 rlineto
        return
      </CharString>
      <CharString index="158">
        490 rlineto
        return
      </CharString>
      <CharString index="159">
        hlineto
        -176 return
      </CharString>
</ttFont>
